<?xml version="1.0" standalone="no"?>
<!DOCTYPE svg PUBLIC "-//W3C//DTD SVG 1.1//EN" "http://www.w3.org/Graphics/SVG/1.1/DTD/svg11.dtd" >
<svg xmlns="http://www.w3.org/2000/svg">
<metadata>
Created by FontPrep 20130207 at Sun Dec  7 15:23:15 2014
 By Lawrence Chin
Copyright (c) 1991, 1992, 2002 Adobe Systems Incorporated.  All Rights Reserved. (c) 1981, 2002 Heidelberger Druckmaschinen AG. All rights reserved.
</metadata>
<defs>
<font id="5c83ab110137b337279ec8d054c37ef7" horiz-adv-x='1024' >
  <font-face 
    font-family="CaeciliaLTStd-Bold"
    font-weight="700"
    font-stretch="normal"
    units-per-em="2048"
    panose-1="0 0 8 0 0 0 0 0 0 0"
    ascent="1575"
    descent="-473"
    x-height="1065"
    cap-height="1434"
    bbox="-340 -559 2337.01 1921"
    underline-thickness="102"
    underline-position="-102"
    unicode-range="U+0020-FB02"
  />
<missing-glyph horiz-adv-x="1024" 
d="M102 1239v-1044l349 522zM164 102h696l-348 523zM573 717l349 -522v1044zM512 809l348 522h-696zM0 0v1434h1024v-1434h-1024z" />
    <glyph glyph-name="f_i" unicode="fi" 
d="M90 0v168h129l4 729h-162v168h162l4 145q6 199 128 294t321 95q106 0 272 -34v-168q-100 23 -235 22q-250 0 -256 -233l-4 -121h624l-4 -897h144v-168h-512v168h139l4 729h-395l-4 -729h143v-168h-502z" />
    <glyph glyph-name="f_l" unicode="fl" horiz-adv-x="1327" 
d="M90 0v168h129l4 729h-162v168h162l4 145q6 199 128 294t321 95q115 0 207 -24h235l-8 -1407h143v-168h-501v168h129l8 1227q-68 25 -190 25t-180 -66q-58 -64 -62 -168l-4 -121h249v-168h-249l-4 -729h143v-168h-502z" />
    <glyph glyph-name=".notdef" horiz-adv-x="1024" 
d="M102 1239v-1044l349 522zM164 102h696l-348 523zM573 717l349 -522v1044zM512 809l348 522h-696zM0 0v1434h1024v-1434h-1024z" />
    <glyph glyph-name=".null" horiz-adv-x="0" 
 />
    <glyph glyph-name="nonmarkingreturn" horiz-adv-x="681" 
 />
    <glyph glyph-name="space" unicode=" " horiz-adv-x="606" 
 />
    <glyph glyph-name="exclam" unicode="!" horiz-adv-x="606" 
d="M145 127q0 66 46 112t112 46t112 -46t46 -112t-46 -112t-112 -46t-112 46t-46 112zM412 473h-217l-25 1102h266z" />
    <glyph glyph-name="quotedbl" unicode="&#x22;" horiz-adv-x="985" 
d="M414 1500q0 -32 -21 -267l-20 -256q-6 -74 -74 -74t-74 74l-20 256q-21 235 -21 267t34 66t81 34t81 -34t34 -66zM801 1500q0 -32 -21 -267l-20 -256q-6 -74 -74 -74t-74 74l-20 256q-20 235 -20 267t33 66q34 34 81 34t81 -34t34 -66z" />
    <glyph glyph-name="numbersign" unicode="#" horiz-adv-x="1212" 
d="M102 430v143h207l39 287h-186v144h207l61 430h143l-61 -430h268l62 430h143l-61 -430h186v-144h-207l-39 -287h187v-143h-207l-62 -430h-143l61 430h-268l-61 -430h-144l62 430h-187zM721 573l39 287h-268l-39 -287h268z" />
    <glyph glyph-name="dollar" unicode="$" horiz-adv-x="1212" 
d="M63 383h205v-203q115 -31 252 -30l4 483l-147 47q-317 86 -318 350q1 202 139 314t330 120l4 265h156l-4 -265q176 -4 379 -67v-318h-193v172q-100 35 -186 33l-4 -469l123 -35q180 -49 265 -131t85 -261t-129 -290t-350 -129l-4 -250h-156l4 250q-303 0 -455 62v352z
M924 379q0 86 -47 129q-48 42 -138 67l-57 17l-8 -442q250 29 250 229zM457 877l67 -19l4 426q-111 -14 -173 -74t-66 -145q0 -143 168 -188z" />
    <glyph glyph-name="percent" unicode="%" horiz-adv-x="1705" 
d="M303 -37l944 1587l133 -80l-944 -1587zM90 1124q0 148 94 244t244 96t240 -85t90 -241t-91 -249q-91 -92 -242 -92t-243 90t-92 237zM424 1321q-80 0 -124 -51q-44 -52 -42 -140t44 -139t124 -51t123 51t41 139q0 191 -166 191zM948 296q0 148 94 244t244 97
q150 0 240 -85t90 -242t-91 -249t-242 -92t-243 90q-92 89 -92 237zM1282 494q-80 0 -124 -52t-42 -139q2 -88 44 -139t124 -51t123 51t41 139q0 191 -166 191z" />
    <glyph glyph-name="ampersand" unicode="&#x26;" horiz-adv-x="1554" 
d="M940 270l-403 414l-50 -33q-150 -98 -149 -233q0 -113 86 -188q86 -74 208 -74t182 28t126 86zM613 1303q-81 -1 -133 -47t-52 -107q0 -90 113 -203l34 -37l43 29q49 30 80 56t57 68q25 42 25 98t-43 100q-43 43 -124 43zM1466 877v-156h-131q0 -113 -43 -237t-104 -193
q106 -123 211 -123q39 0 67 6v-168q-41 -6 -94 -6q-162 0 -254 94l-51 53q-84 -84 -186 -128t-271 -44q-223 0 -356 124t-133 284q0 215 223 371l74 51l-60 65q-122 136 -122 264t101 226t283 98t267 -86q86 -86 86 -198t-53 -183q-53 -72 -150 -141l-76 -57l371 -379
q39 51 65 145q27 94 25 162h-139v156h450z" />
    <glyph glyph-name="quotesingle" unicode="'" horiz-adv-x="606" 
d="M418 1500q0 -32 -21 -267l-20 -256q-6 -74 -74 -74t-74 74l-20 256q-21 235 -21 267t34 66t81 34t81 -34t34 -66z" />
    <glyph glyph-name="parenleft" unicode="(" horiz-adv-x="606" 
d="M340 530q0 -545 260 -952l29 -45l-160 -92l-29 37q-150 200 -246 488q-194 586 3 1128q98 272 254 483l32 43l156 -92l-29 -43q-122 -182 -196 -438t-74 -517z" />
    <glyph glyph-name="parenright" unicode=")" horiz-adv-x="606" 
d="M508 523q0 -284 -98 -556t-254 -483l-33 -43l-156 92l29 43q123 182 197 438t73 516q0 545 -260 953l-29 45l160 92l29 -37q150 -199 246 -487t96 -573z" />
    <glyph glyph-name="asterisk" unicode="*" horiz-adv-x="720" 
d="M287 938l32 250l-198 -150l-76 127l236 95l-236 86l76 137l198 -152l-32 244h159l-38 -244l192 152l76 -137l-227 -86l227 -95l-76 -127l-192 150l38 -250h-159z" />
    <glyph glyph-name="plus" unicode="+" horiz-adv-x="1228" 
d="M530 0v434h-434v168h434v434h168v-434h435v-168h-435v-434h-168z" />
    <glyph glyph-name="comma" unicode="," horiz-adv-x="606" 
d="M231 -88q0 59 -53 130t-53 115t40 86q41 42 117 42t128 -72t51 -166q0 -94 -47 -202t-140 -189l-77 -68l-105 103l35 35q104 104 104 186z" />
    <glyph glyph-name="hyphen" unicode="-" horiz-adv-x="833" 
d="M135 479v205h563v-205h-563z" />
    <glyph glyph-name="period" unicode="." horiz-adv-x="606" 
d="M145 127q0 66 46 112t112 46t112 -46t46 -112t-46 -112t-112 -46t-112 46t-46 112z" />
    <glyph glyph-name="slash" unicode="/" horiz-adv-x="757" 
d="M-4 -109l614 1708l152 -57l-615 -1708z" />
    <glyph glyph-name="zero" unicode="0" horiz-adv-x="1212" 
d="M86 688q0 301 117 529q59 115 165 181t251 66q144 0 250 -67q176 -114 235 -408q22 -115 22 -260t-28 -280t-89 -246q-60 -111 -168 -172t-253 -62q-502 0 -502 719zM328 692q0 -543 272 -542q150 0 218 158t67 426q0 550 -271 550q-146 0 -216 -162t-70 -430z" />
    <glyph glyph-name="one" unicode="1" horiz-adv-x="1212" 
d="M274 0v168h279l8 1051q-47 -45 -84 -68l-260 -172l-94 156l487 299h181l-9 -1266h299v-168h-807z" />
    <glyph glyph-name="two" unicode="2" horiz-adv-x="1212" 
d="M96 0v168l56 43q91 71 224 186q134 115 193 182t126 151q136 172 134 321q0 102 -57 161q-58 60 -166 60t-170 -51q-104 -84 -104 -207h-230q0 110 50 198t103 138q54 50 144 82q90 33 201 32q201 0 330 -108t129 -301q0 -97 -46 -203q-47 -106 -107 -190t-158 -182
t-164 -156q-66 -57 -162 -136v-4q78 8 156 9h532v-193h-1014z" />
    <glyph glyph-name="three" unicode="3" horiz-adv-x="1212" 
d="M412 647v168h26q200 0 304 113q60 66 60 159t-58 145t-143 52q-153 0 -213 -86q-48 -68 -48 -141h-229q0 97 48 175t101 124t143 78q90 31 201 30q215 0 328 -99q112 -99 112 -249t-85 -239q-85 -88 -216 -117v-4q158 -10 258 -102t101 -246q0 -197 -144 -318t-434 -121
q-223 0 -405 80v219q199 -106 373 -106t271 58t97 190q0 238 -366 237h-82z" />
    <glyph glyph-name="four" unicode="4" horiz-adv-x="1212" 
d="M379 582h326l4 628l-4 4l-431 -636q70 4 105 4zM51 401v181l598 852h279l-8 -852h270v-181h-270l-5 -233h170v-168h-536v168h151l5 233h-654z" />
    <glyph glyph-name="five" unicode="5" horiz-adv-x="1212" 
d="M1008 1434v-181h-600l-9 -342h35q181 0 298 -41q118 -41 184 -89t111 -133q44 -85 44 -195q0 -213 -155 -349t-385 -135q-230 0 -390 62v192l31 -10q106 -39 180 -45t125 -6q172 0 262 72t90 206q0 210 -266 263q-142 28 -356 28h-37l8 703h830z" />
    <glyph glyph-name="six" unicode="6" horiz-adv-x="1212" 
d="M881 449q0 117 -67 195t-200 79q-118 0 -182 -49t-78 -64l-22 -26q0 -193 76 -308q76 -114 207 -114t199 85t67 202zM829 1284q-233 0 -348 -133t-149 -399l4 -4q137 156 335 156q199 0 319 -118q120 -116 120 -332t-134 -350t-358 -135q-317 0 -447 297q-67 155 -68 328
q-1 174 22 291q80 409 419 533q126 46 263 46t240 -28l30 -11l-16 -180q-117 39 -232 39z" />
    <glyph glyph-name="seven" unicode="7" horiz-adv-x="1212" 
d="M129 1241v193h954v-148l-448 -897q-117 -225 -217 -389h-254q92 125 215 362l291 566q111 215 178 313h-719z" />
    <glyph glyph-name="eight" unicode="8" horiz-adv-x="1212" 
d="M137 1087q0 165 125 271q124 106 352 106t352 -91t124 -259q0 -246 -297 -364v-5q123 -38 220 -118q117 -101 115 -256q0 -401 -540 -402q-205 0 -344 78q-74 41 -117 117t-43 178q0 237 256 350l88 39v4q-291 92 -291 352zM326 362q0 -94 72 -153t214 -59q143 0 215 61
t72 162q0 53 -27 94t-57 61q-31 20 -84 47l-133 68l-90 -47q-182 -94 -182 -234zM860 1098q0 94 -67 140q-68 46 -182 46q-113 0 -179 -54t-66 -136t45 -129q44 -47 124 -86l83 -39l76 37q166 82 166 221z" />
    <glyph glyph-name="nine" unicode="9" horiz-adv-x="1212" 
d="M598 1272q-131 0 -199 -85q-67 -85 -67 -202t66 -195t200 -79q115 0 182 50q20 15 39 28t39 34l23 27q0 194 -76 308t-207 114zM543 530q-199 0 -320 117t-121 333t134 350t358 134q115 0 205 -40t147 -104q164 -186 164 -521q0 -273 -99 -475q-54 -109 -135 -186
t-207 -123q-125 -46 -263 -46t-240 29l-31 10l17 180q117 -39 231 -38q233 0 348 133t150 399l-4 4q-135 -156 -334 -156z" />
    <glyph glyph-name="colon" unicode=":" horiz-adv-x="606" 
d="M145 127q0 66 46 112t112 46t112 -46t46 -112t-46 -112t-112 -46t-112 46t-46 112zM145 932q0 66 46 112t112 46t112 -46t46 -112t-46 -112t-112 -46t-112 46t-46 112z" />
    <glyph glyph-name="semicolon" unicode=";" horiz-adv-x="606" 
d="M141 932q0 66 46 112t112 46t112 -46t46 -112t-46 -112t-112 -46t-112 46t-46 112zM231 -88q0 59 -53 130t-53 115t40 86q41 42 117 42t128 -72t51 -166q0 -94 -47 -202t-140 -189l-77 -68l-105 103l35 35q104 104 104 186z" />
    <glyph glyph-name="less" unicode="&#x3c;" horiz-adv-x="1228" 
d="M96 440v156l1037 463v-168l-832 -373l832 -373v-168z" />
    <glyph glyph-name="equal" unicode="=" horiz-adv-x="1228" 
d="M96 238v168h1037v-168h-1037zM96 631v168h1037v-168h-1037z" />
    <glyph glyph-name="greater" unicode="&#x3e;" horiz-adv-x="1228" 
d="M1133 596v-156l-1037 -463v168l832 373l-832 373v168z" />
    <glyph glyph-name="question" unicode="?" horiz-adv-x="985" 
d="M166 127q0 66 46 112t112 46t112 -46t45 -112q0 -66 -46 -112q-45 -46 -111 -46t-112 46t-46 112zM164 614q0 68 20 111q42 91 236 199q117 66 165 130t48 158q0 92 -79 150t-203 57q-124 0 -216 -43l-12 180q129 43 287 43q229 0 353 -103t124 -271q0 -219 -217 -361
l-189 -121q-51 -33 -69 -59t-18 -72q0 -47 52 -100l-202 -76l-17 21q-63 89 -63 157z" />
    <glyph glyph-name="at" unicode="@" horiz-adv-x="1638" 
d="M1071 463q0 -43 76 -43t155 122t78 281q0 205 -155 336q-156 131 -373 131q-256 0 -425 -171t-169 -417t169 -402q169 -157 409 -157q322 0 493 168h168q-82 -151 -254 -243t-407 -93q-326 0 -542 201q-216 202 -216 530t216 540t540 212t525 -171q202 -171 202 -439
q1 -141 -51 -256q-52 -114 -132 -180q-165 -136 -314 -136q-148 0 -153 119h-4q-102 -119 -232 -119t-209 90t-79 234q0 213 134 376t297 163t243 -156l37 117h145l-139 -500q-33 -117 -33 -137zM999 797q0 186 -161 186q-119 0 -201 -116t-82 -249q0 -90 41 -138t113 -48
q121 0 205 122t85 243z" />
    <glyph glyph-name="A" unicode="A" horiz-adv-x="1554" 
d="M25 0v168h122l521 1266h254l481 -1266h127v-168h-524v168h131l-123 356h-504l-133 -356h147v-168h-499zM954 705l-141 405q-25 70 -37 131h-4q-14 -68 -39 -131l-158 -405h379z" />
    <glyph glyph-name="B" unicode="B" 
d="M614 823q119 1 188 61q68 60 68 180t-96 175q-49 27 -162 27h-149l-4 -443h155zM80 0v168h143l8 1098h-151v168h571q221 0 332 -82q55 -39 92 -112t37 -159q0 -129 -77 -223t-208 -104v-4q152 2 262 -94q109 -96 109 -269q0 -171 -132 -279t-386 -108h-600zM643 168
q133 0 217 59t84 177t-84 179q-84 60 -205 60h-196l-4 -475h188z" />
    <glyph glyph-name="C" unicode="C" horiz-adv-x="1402" 
d="M1307 1014h-205v229q-129 35 -244 35q-254 0 -387 -148t-133 -406q0 -259 135 -414t354 -154q150 0 256 20l9 258h204l-8 -391q-203 -68 -446 -68q-370 0 -564 203q-194 202 -194 532t211 539t565 209q254 0 447 -78v-366z" />
    <glyph glyph-name="D" unicode="D" horiz-adv-x="1593" 
d="M684 168q262 0 405 150q142 151 142 409t-138 398t-399 141h-231l-8 -1098h229zM80 0v168h145l8 1098h-153v168h680q342 0 533 -184t191 -506t-195 -533q-196 -211 -531 -211h-678z" />
    <glyph glyph-name="E" unicode="E" horiz-adv-x="1214" 
d="M94 0v168h144l8 1098h-166v168h1007l9 -377h-191l-12 209h-416l-4 -443h410v-180h-410l-4 -475h436l17 233h192l-16 -401h-1004z" />
    <glyph glyph-name="F" unicode="F" horiz-adv-x="1175" 
d="M94 0v168h144l8 1098h-166v168h1007l9 -377h-191l-12 209h-416l-4 -443h447v-180h-447l-4 -475h176v-168h-551z" />
    <glyph glyph-name="G" unicode="G" horiz-adv-x="1478" 
d="M1307 1014h-205v229q-129 35 -244 35q-254 0 -387 -148t-133 -406q0 -259 135 -414t354 -154q131 0 244 28l4 316h-164v168h529v-168h-148l-4 -457q-186 -68 -438 -68q-374 0 -570 203q-196 202 -196 532t211 539t565 209q254 0 447 -78v-366z" />
    <glyph glyph-name="H" unicode="H" horiz-adv-x="1593" 
d="M981 0v168h143l4 461h-665l-4 -461h153v-168h-528v168h143l9 1098h-152v168h528v-168h-145l-4 -457h665l5 457h-152v168h528v-168h-145l-8 -1098h153v-168h-528z" />
    <glyph glyph-name="I" unicode="I" horiz-adv-x="720" 
d="M96 0v168h146l8 1098h-154v168h529v-168h-146l-8 -1098h154v-168h-529z" />
    <glyph glyph-name="J" unicode="J" horiz-adv-x="681" 
d="M96 1266v168h529v-168h-142l-8 -863q-2 -315 -93 -474t-335 -283l-67 -35l-74 166l71 41q179 104 224 251t45 320l8 877h-158z" />
    <glyph glyph-name="K" unicode="K" horiz-adv-x="1441" 
d="M80 0v168h141l8 1098h-149v168h526v-168h-145l-4 -502l567 502h-158v168h537v-168h-115l-590 -516l607 -582h118v-168h-573v168h149l-542 520l-4 -520h153v-168h-526z" />
    <glyph glyph-name="L" unicode="L" horiz-adv-x="1214" 
d="M80 0v168h145l8 1098h-153v168h528v-168h-145l-8 -1098h426l20 242h193l-21 -410h-993z" />
    <glyph glyph-name="M" unicode="M" horiz-adv-x="1933" 
d="M70 0v168h145l8 1098h-162v168h471l414 -1067q6 -16 33 -117h4q27 100 33 117l409 1067h447v-168h-164l8 -1098h156v-168h-522v168h141l8 969l-6 4q-6 -20 -20 -78t-35 -113l-367 -950h-229l-359 913q-8 20 -63 220h-4l-8 -965h161v-168h-499z" />
    <glyph glyph-name="N" unicode="N" horiz-adv-x="1630" 
d="M88 0v168h139l9 1098h-181v168h377l664 -867q63 -84 143 -215h4l-8 914h-160v168h500v-168h-139l-9 -1266h-186l-717 930q-70 92 -100 151l-4 -4l8 -909h158v-168h-498z" />
    <glyph glyph-name="O" unicode="O" horiz-adv-x="1554" 
d="M338 702q0 -226 112 -380t324 -154q133 0 227 58q93 58 137 152q76 166 79 351q0 400 -250 505q-76 32 -174 32q-197 0 -326 -140t-129 -424zM766 -25q-314 -1 -498 193t-184 529t198 548t516 213t495 -192t177 -509q0 -316 -170 -540q-84 -111 -222 -177t-312 -65z" />
    <glyph glyph-name="P" unicode="P" horiz-adv-x="1214" 
d="M618 737q147 0 218 74q70 74 70 198q-1 255 -318 257h-127l-4 -529h161zM80 0v168h145l8 1098h-153v168h541q139 0 212 -14q182 -36 265 -194q49 -93 49 -210t-55 -221q-120 -226 -424 -226h-211l-4 -401h176v-168h-549z" />
    <glyph glyph-name="Q" unicode="Q" horiz-adv-x="1554" 
d="M338 702q0 -226 112 -380t324 -154q133 0 227 58q93 58 137 152q76 166 79 351q0 400 -250 505q-76 32 -174 32q-197 0 -326 -140t-129 -424zM84 710q0 322 198 535t516 213t495 -192t177 -525q0 -253 -122 -457t-357 -278v-4q90 -8 191 -59l190 -97q109 -55 200 -55
t124 12v-180q-86 -12 -154 -12t-147 20q-78 20 -205 86l-287 146q-170 95 -231 112q-272 33 -430 223t-158 512z" />
    <glyph glyph-name="R" unicode="R" horiz-adv-x="1327" 
d="M635 791q125 0 200 63t74 176q0 113 -66 174q-67 61 -192 62h-190l-4 -475h178zM80 0v168h141l8 1098h-149v168h637q211 0 323 -106t111 -277q0 -169 -96 -265t-246 -110v-4q94 -8 182 -156l156 -262q51 -86 127 -86h53v-168h-133q-98 0 -150 27q-51 27 -110 125
l-197 333q-45 76 -75 101q-31 25 -82 24h-123l-4 -442h165v-168h-538z" />
    <glyph glyph-name="S" unicode="S" horiz-adv-x="1251" 
d="M109 397h229v-190q98 -51 248 -51t233 61q82 61 82 174q0 82 -51 125t-172 78l-254 72q-311 90 -311 372q0 203 151 312q152 109 389 108q188 0 434 -69v-318h-217v172q-88 35 -228 35t-214 -58t-74 -146t56 -132q56 -43 165 -72l222 -57q346 -90 346 -385
q1 -213 -147 -333t-404 -120q-94 0 -246 22t-237 54v346z" />
    <glyph glyph-name="T" unicode="T" horiz-adv-x="1402" 
d="M434 0v168h148l8 1098h-334l-8 -209h-205l8 377h1301l8 -377h-205l-8 209h-328l-8 -1098h166v-168h-543z" />
    <glyph glyph-name="U" unicode="U" horiz-adv-x="1554" 
d="M61 1266v168h525v-168h-146l-2 -719q0 -70 3 -114t23 -98q60 -167 310 -167q109 0 169 17q59 17 107 65t64 114q16 67 19 177l4 725h-168v168h524v-168h-137l-4 -770q0 -266 -160 -404q-139 -117 -424 -117t-426 119q-76 62 -104 156t-29 307q0 213 4 709h-152z" />
    <glyph glyph-name="V" unicode="V" horiz-adv-x="1517" 
d="M10 1266v168h537v-168h-146l342 -949q4 -12 33 -124h4q29 113 33 124l336 949h-166v168h524v-168h-129l-491 -1266h-254l-498 1266h-125z" />
    <glyph glyph-name="W" unicode="W" horiz-adv-x="2275" 
d="M16 1266v168h537v-168h-143l309 -924q10 -29 22 -80t19 -69h4q4 12 17 67t24 82l254 692l-78 232h-139v168h524v-168h-143l280 -906q6 -18 39 -167h4q6 20 22 78q15 58 25 89l312 906h-158v168h512v-168h-125l-477 -1266h-254l-246 760h-4l-287 -760h-254l-469 1266h-127
z" />
    <glyph glyph-name="X" unicode="X" horiz-adv-x="1441" 
d="M848 0v168h147q-25 25 -41 49l-254 356l-270 -356q-18 -25 -43 -49h145v-168h-499v168h119l440 551l-402 547h-135v168h561v-168h-153q16 -16 39 -45l246 -336l264 332q16 20 45 49h-156v168h475v-168h-108l-412 -527l424 -571h129v-168h-561z" />
    <glyph glyph-name="Y" unicode="Y" horiz-adv-x="1478" 
d="M479 0v168h144l8 424l-498 674h-125v168h524v-168h-139q25 -25 41 -49l330 -449l326 449q12 18 43 49h-162v168h499v-168h-127l-483 -674l-8 -424h152v-168h-525z" />
    <glyph glyph-name="Z" unicode="Z" horiz-adv-x="1327" 
d="M90 0v160l811 1057q20 27 45 49h-590l-16 -207h-205l17 375h1073v-172l-801 -1045q-18 -25 -43 -49h635l16 207h205l-16 -375h-1131z" />
    <glyph glyph-name="bracketleft" unicode="[" horiz-adv-x="606" 
d="M573 -346v-168h-409l8 2089h410v-168h-193l-8 -1753h192z" />
    <glyph glyph-name="backslash" unicode="\" horiz-adv-x="757" 
d="M610 -166l-614 1708l151 57l615 -1708z" />
    <glyph glyph-name="bracketright" unicode="]" horiz-adv-x="606" 
d="M33 1407v168h409l-8 -2089h-409v168h192l8 1753h-192z" />
    <glyph glyph-name="asciicircum" unicode="^" horiz-adv-x="1228" 
d="M885 686l-271 543l-270 -543h-168l373 748h131l373 -748h-168z" />
    <glyph glyph-name="underscore" unicode="_" horiz-adv-x="1024" 
d="M0 -256v102h1024v-102h-1024z" />
    <glyph glyph-name="grave" unicode="`" horiz-adv-x="569" 
d="M346 1188l-407 328l122 114l414 -344z" />
    <glyph glyph-name="a" unicode="a" horiz-adv-x="1214" 
d="M348 288q0 -50 45 -91t125 -41q127 0 201 81t74 189v43q-238 0 -313 -27q-36 -12 -68 -29q-64 -33 -64 -125zM1137 168v-168h-338q0 115 18 221h-4q-92 -246 -354 -246q-174 1 -257 93t-83 213q0 303 459 325l219 12v80q1 109 -51 166q-52 58 -170 58t-207 -37v-156h-205
v264q207 97 427 97t315 -104t95 -304l-8 -514h144z" />
    <glyph glyph-name="b" unicode="b" horiz-adv-x="1251" 
d="M8 1407v168h402l-9 -506q-2 -74 -18 -225h4q37 96 128 171t237 75q204 0 318 -132t114 -346q0 -213 -86 -374t-278 -227q-105 -36 -238 -36q-201 0 -410 82l8 1350h-172zM942 570q0 326 -260 327q-129 0 -201 -86t-75 -219l-9 -379q94 -45 211 -45q170 0 252 120t82 282z
" />
    <glyph glyph-name="c" unicode="c" horiz-adv-x="1024" 
d="M758 733v158q-59 18 -135 18q-154 0 -237 -101t-83 -260q0 -160 89 -270q90 -110 270 -110t286 61l-12 -198q-129 -55 -287 -55q-159 0 -273 48t-177 129q-127 163 -125 373q0 252 150 408q151 156 423 156q182 0 303 -56v-301h-192z" />
    <glyph glyph-name="d" unicode="d" 
d="M848 567v297q-74 45 -214 45q-140 -1 -230 -115q-89 -114 -89 -274t67 -256q66 -96 196 -96t200 104t70 295zM1217 168v-168h-361q0 94 21 217h-5q-94 -242 -354 -242q-196 1 -320 137t-124 388t152 421q153 169 419 169q102 0 211 -25l4 342h-194v168h415l-8 -1407h144z
" />
    <glyph glyph-name="e" unicode="e" horiz-adv-x="1138" 
d="M836 651v21q0 88 -62 169t-192 81q-131 0 -195 -79t-72 -192h521zM588 1090q242 0 365 -154q124 -154 124 -410v-30h-762q1 -154 103 -247t273 -93t331 82l-12 -189q-176 -74 -375 -74q-262 2 -412 152q-149 151 -149 399t136 406t378 158z" />
    <glyph glyph-name="f" unicode="f" horiz-adv-x="720" 
d="M90 0v168h129l4 729h-162v168h162l4 145q6 199 128 294t321 95q78 0 207 -24l-9 -180q-57 25 -177 25t-178 -66q-58 -64 -62 -168l-4 -121h249v-168h-249l-4 -729h163v-168h-522z" />
    <glyph glyph-name="g" unicode="g" horiz-adv-x="1175" 
d="M285 -209q0 -162 305 -162q133 0 227 43t94 135q0 53 -45 80t-145 41l-266 41q-170 -74 -170 -178zM309 690q0 -223 271 -223q120 0 186 62q66 63 66 169t-70 165t-192 59t-192 -64t-69 -168zM1024 678q0 -166 -127 -272t-305 -107h-86q-43 0 -80 -25t-37 -49t10 -38
q13 -19 170 -44l279 -39q129 -18 205 -75q75 -57 75 -187t-85 -221q-85 -90 -205 -125t-271 -35q-219 0 -359 77t-140 206q0 102 71 170q72 68 176 82v4q-156 33 -155 158q0 76 60 118t142 56v4q-114 31 -192 113q-78 81 -78 247t127 280t348 114q86 0 189 -25h393l-8 -168
l-205 12q88 -98 88 -231z" />
    <glyph glyph-name="h" unicode="h" horiz-adv-x="1366" 
d="M729 897q-113 0 -191 -88t-81 -236l-8 -405h143v-168h-494v168h121l8 1239h-153v168h391l-6 -510q0 -68 -27 -236h4q35 113 130 187t262 74q166 0 260 -109t94 -303l-8 -510h139v-168h-490v168h121l8 469q0 117 -55 189t-168 71z" />
    <glyph glyph-name="i" unicode="i" horiz-adv-x="645" 
d="M180 1442q0 66 46 112t112 45q66 0 112 -46q46 -45 46 -111t-46 -112t-112 -46t-112 46t-46 112zM80 0v168h139l4 729h-162v168h392l-4 -897h143v-168h-512z" />
    <glyph glyph-name="j" unicode="j" horiz-adv-x="681" 
d="M180 1442q0 66 46 112t112 45q66 0 112 -46q46 -45 46 -111t-46 -112t-112 -46t-112 46t-46 112zM61 897v168h392l-4 -866q-4 -664 -570 -738l-29 183q215 51 291 184t78 461l4 608h-162z" />
    <glyph glyph-name="k" unicode="k" horiz-adv-x="1251" 
d="M90 0v168h129l8 1239h-186v168h416l-8 -973l376 291v4h-151v168h500v-168h-107l-381 -315l412 -414h121v-168h-512v168h124l-382 373v-373h129v-168h-488z" />
    <glyph glyph-name="l" unicode="l" horiz-adv-x="645" 
d="M90 0v168h129l8 1239h-186v168h416l-8 -1407h143v-168h-502z" />
    <glyph glyph-name="m" unicode="m" horiz-adv-x="2048" 
d="M98 0v168h121l4 729h-149v168h379q0 -106 -21 -236h4q33 119 132 190t241 71q143 0 223 -67t96 -175h5q37 117 133 179t231 63q180 0 273 -109t94 -303q0 -283 -9 -510h140v-168h-490v168h121q8 207 8 469q0 117 -55 189t-166 71q-111 0 -181 -87t-73 -237l-4 -405h135
v-168h-481v168h117l4 428q4 301 -213 301q-107 0 -185 -90t-79 -234l-4 -405h143v-168h-494z" />
    <glyph glyph-name="n" unicode="n" horiz-adv-x="1366" 
d="M729 897q-113 0 -191 -88t-81 -236l-8 -405h143v-168h-494v168h121l4 729h-149v168h379q0 -106 -21 -236h4q35 113 130 187t262 74q166 0 260 -109t94 -303l-8 -510h139v-168h-490v168h121l8 469q0 117 -55 189t-168 71z" />
    <glyph glyph-name="o" unicode="o" horiz-adv-x="1214" 
d="M68 528q0 242 155 402q156 160 402 160q141 0 246 -50t163 -135q114 -166 113 -392q0 -227 -143 -383q-144 -156 -408 -155q-264 0 -396 155q-132 156 -132 398zM621 897q-158 -1 -235 -111t-77 -262t75 -254q74 -102 222 -102t224 108t75 277q0 170 -79 257t-205 87z
" />
    <glyph glyph-name="p" unicode="p" 
d="M428 498v-297q74 -45 216 -45t230 114t88 275q0 160 -66 256q-68 96 -198 96q-130 -1 -200 -105t-70 -294zM53 897v168h367q0 -94 -21 -217h4q94 242 355 242q198 0 322 -136t124 -388t-152 -422q-153 -169 -421 -169q-121 0 -211 35l-4 -356h170v-168h-510v168h119
l8 1243h-150z" />
    <glyph glyph-name="q" unicode="q" 
d="M506 -25q-205 1 -319 133q-113 132 -113 346q1 337 191 505q151 131 411 131q199 0 411 -82l-8 -1354h152v-168h-512v168h131l4 342q0 65 20 225h-4q-37 -96 -128 -171t-236 -75zM649 897q-170 0 -252 -120q-82 -121 -82 -283t67 -244q66 -82 194 -82t200 86t76 219
l8 379q-94 45 -211 45z" />
    <glyph glyph-name="r" unicode="r" horiz-adv-x="872" 
d="M90 0v168h129l4 729h-162v168h379q0 -188 -12 -295l4 -4q31 150 114 234t182 85q99 0 144 -18l-24 -203q-45 16 -105 17q-141 0 -215 -112t-75 -269l-4 -332h155v-168h-514z" />
    <glyph glyph-name="s" unicode="s" horiz-adv-x="1062" 
d="M973 330q0 -350 -477 -355q-213 0 -387 64l-5 289h205l4 -142q143 -43 231 -43t149 37q63 38 63 106t-40 98t-114 44l-170 31q-244 41 -313 169q-29 54 -29 126q0 174 128 255t304 81t391 -70l5 -260h-205l-4 127q-61 35 -174 35q-215 0 -216 -129q0 -55 36 -80t100 -39
l260 -51q98 -18 178 -78q80 -59 80 -215z" />
    <glyph glyph-name="t" unicode="t" horiz-adv-x="757" 
d="M61 897v168h162l4 240l232 16l-8 -256h305v-168h-305q-5 -339 -5 -489t34 -201t113 -51t181 41l-8 -168q-106 -53 -256 -53t-222 74q-72 75 -71 253q0 41 6 594h-162z" />
    <glyph glyph-name="u" unicode="u" horiz-adv-x="1366" 
d="M74 897v168h370q-8 -422 -8 -637q0 -116 54 -188t163 -72t187 89t80 235l4 405h-140v168h369l-4 -897h143v-168h-368q0 106 20 236h-4q-31 -117 -137 -189t-236 -72q-170 0 -265 110t-95 298q0 287 8 514h-141z" />
    <glyph glyph-name="v" unicode="v" horiz-adv-x="1175" 
d="M-6 897v168h475v-168h-115l211 -575q7 -25 19 -70t16 -59h4l31 129l207 575h-135v168h475v-168h-111l-362 -897h-242l-367 897h-106z" />
    <glyph glyph-name="w" unicode="w" horiz-adv-x="1820" 
d="M10 897v168h475v-168h-120l196 -541q10 -27 45 -151h4q39 123 52 151l167 400l-51 141h-119v168h476v-168h-127l194 -549q6 -14 39 -143h4q33 129 39 143l201 549h-150v168h475v-168h-108l-359 -897h-241l-150 418q-8 20 -32 114h-5q-25 -94 -32 -114l-174 -418h-230
l-356 897h-113z" />
    <glyph glyph-name="x" unicode="x" 
d="M717 0v168h133q-27 25 -39 37l-190 221l-203 -221q-18 -20 -41 -33v-4h147v-168h-463v168h117l338 369l-313 360h-123v168h512v-168h-129q14 -12 39 -37l170 -198l176 198q18 20 41 33v4h-139v168h450v-168h-113l-317 -336l340 -393h119v-168h-512z" />
    <glyph glyph-name="y" unicode="y" horiz-adv-x="1214" 
d="M-6 897v168h487v-168h-119l205 -547q13 -31 29 -92t18 -68h4q14 63 48 160l188 547h-139v168h450v-168h-106l-324 -891q-106 -295 -168 -375q-131 -170 -366 -170q-86 0 -146 23v180q51 -22 145 -22t162 58q70 58 132 220l8 23l-393 954h-115z" />
    <glyph glyph-name="z" unicode="z" horiz-adv-x="1099" 
d="M82 0v168l590 674q14 16 59 55h-414l-16 -158h-192l16 326h885v-172l-578 -653q-14 -16 -74 -72h451l16 164h193l-17 -332h-919z" />
    <glyph glyph-name="braceleft" unicode="{" horiz-adv-x="606" 
d="M623 1575v-156h-56q-117 0 -116 -155v-418q1 -123 -61 -204t-157 -110v-4q94 -29 156 -109q61 -81 62 -204v-418q0 -156 116 -155h56v-156h-129q-106 0 -184 82q-77 82 -77 223v424q0 94 -57 164t-135 74v155q78 4 135 74t57 164v424q0 141 77 223t184 82h129z" />
    <glyph glyph-name="bar" unicode="|" horiz-adv-x="454" 
d="M143 -512v2048h168v-2048h-168z" />
    <glyph glyph-name="braceright" unicode="}" horiz-adv-x="606" 
d="M-16 -514v156h55q117 0 117 155v418q0 123 61 204t156 109v4q-94 29 -156 110q-61 81 -61 204v418q0 156 -117 155h-55v156h129q106 0 183 -82t77 -223v-424q0 -94 57 -164t135 -74v-155q-78 -4 -135 -74t-57 -164v-424q0 -141 -77 -223t-183 -82h-129z" />
    <glyph glyph-name="asciitilde" unicode="~" horiz-adv-x="1228" 
d="M406 506q-77 0 -139 -79q-17 -24 -52 -75l-74 148q92 174 256 174q86 0 238 -72t195 -72q42 0 78 28t54 51q17 24 52 75l73 -147q-92 -174 -256 -175q-78 0 -233 72q-142 72 -192 72z" />
    <glyph glyph-name="uni00A0" unicode="&#xa0;" horiz-adv-x="606" 
 />
    <glyph glyph-name="exclamdown" unicode="&#xa1;" horiz-adv-x="606" 
d="M461 932q0 -66 -46 -112t-112 -46t-112 46t-46 112t46 112t112 46t112 -46t46 -112zM170 -514l25 1102h217l24 -1102h-266z" />
    <glyph glyph-name="cent" unicode="&#xa2;" horiz-adv-x="1212" 
d="M1079 733h-180v158q-84 18 -151 18l-5 -741q176 4 310 61l-13 -198q-158 -49 -297 -56l-4 -249h-155l4 249q-240 29 -354 187t-114 374t125 371q124 154 347 174l4 213h156l-4 -204q96 0 194 -18t137 -38v-301zM588 168l4 733q-117 -13 -179 -115t-63 -237
q0 -313 238 -381z" />
    <glyph glyph-name="sterling" unicode="&#xa3;" horiz-adv-x="1212" 
d="M61 0v168h156q55 68 55 226t-10 265h-184v168h178q-8 78 -8 183q0 219 141 337q141 117 369 117t375 -57v-371h-193v226q-100 23 -168 22q-158 0 -226 -80t-69 -181q0 -101 8 -196h279v-168h-272l10 -204q0 -217 -68 -287h496l12 233h193l-13 -401h-1061z" />
    <glyph glyph-name="currency" unicode="&#xa4;" horiz-adv-x="1212" 
d="M266 717q0 -154 98 -259q98 -106 242 -106t242 106t98 259q0 154 -98 259t-242 105t-242 -105t-98 -259zM1114 717q0 -174 -104 -307l114 -115l-94 -94l-115 114q-135 -106 -309 -106t-309 106l-115 -114l-94 94l115 115q-104 133 -105 307q0 174 105 307l-115 115l94 94
l115 -115q133 106 309 106t309 -106l115 115l94 -94l-114 -115q104 -133 104 -307z" />
    <glyph glyph-name="yen" unicode="&#xa5;" horiz-adv-x="1212" 
d="M389 0v168h121l4 164h-305v131h305l4 119h-309v131h225l-325 553h-103v168h438v-168h-118l301 -523l297 523h-131v168h413v-168h-102l-313 -553h213v-131h-293l-4 -119h297v-131h-297l-5 -164h125v-168h-438z" />
    <glyph glyph-name="brokenbar" unicode="&#xa6;" horiz-adv-x="454" 
d="M143 666v716h168v-716h-168zM143 -358v716h168v-716h-168z" />
    <glyph glyph-name="section" unicode="&#xa7;" horiz-adv-x="1212" 
d="M150 -35h204v-166q113 -43 223 -43q111 0 179 45t67 142q0 57 -36 91t-107 66l-320 140q-207 88 -206 284q0 133 64 195t144 106q-94 45 -142 110t-48 167q0 172 128 264t339 92t389 -69v-273h-205v144q-85 30 -191 30t-168 -43t-62 -109t30 -97q31 -32 105 -64l299 -133
q227 -100 227 -301t-197 -299q186 -88 186 -278t-133 -290t-353 -100t-416 86v303zM371 575q1 -49 33 -92t90 -67l243 -105l47 37q74 57 74 145t-113 144l-241 119l-47 -31q-86 -53 -86 -150z" />
    <glyph glyph-name="dieresis" unicode="&#xa8;" horiz-adv-x="569" 
d="M-86 1401q0 59 43 102t102 43t103 -43t43 -102q0 -59 -43 -103q-42 -44 -102 -43q-60 -1 -103 43t-43 103zM365 1401q0 59 43 102t102 43t102 -43t43 -102t-43 -103t-102 -43q-59 -1 -102 43t-43 103z" />
    <glyph glyph-name="copyright" unicode="&#xa9;" horiz-adv-x="1638" 
d="M258 717q0 -250 163 -412t399 -162t398 162q163 162 162 412q0 249 -162 411t-399 162t-399 -162t-162 -411zM78 717q0 307 217 524t524 217t524 -217t217 -524t-216 -524q-218 -217 -525 -217t-524 216q-217 218 -217 525zM811 270q-167 0 -277 122t-110 327t114 325
t304 121q141 0 238 -81t118 -226h-162q-27 152 -198 152q-115 0 -181 -82q-65 -82 -65 -211t68 -210t186 -81q76 0 129 43t61 119h168q-25 -146 -126 -232t-267 -86z" />
    <glyph glyph-name="ordfeminine" unicode="&#xaa;" horiz-adv-x="788" 
d="M219 993q0 -29 26 -51q27 -22 91 -23t112 45t48 103v25q-172 -10 -224 -28t-53 -71zM94 1249v158q129 57 283 57t216 -61t62 -182q0 -16 -6 -299h88v-107h-229q0 63 8 129h-6q-49 -145 -225 -145q-123 0 -179 54q-55 53 -55 119q0 126 115 172q90 36 231 44l103 6v37
q0 115 -150 115q-63 0 -125 -23v-74h-131z" />
    <glyph glyph-name="guillemotleft" unicode="&#xab;" horiz-adv-x="1062" 
d="M82 649l274 312l160 -127l-217 -252l217 -256l-160 -123l-274 315v131zM547 649l274 312l160 -127l-217 -252l217 -256l-160 -123l-274 315v131z" />
    <glyph glyph-name="logicalnot" unicode="&#xac;" horiz-adv-x="1228" 
d="M96 631v168h1037v-578h-168v410h-869z" />
    <glyph glyph-name="uni00AD" unicode="&#xad;" horiz-adv-x="833" 
d="M135 479v205h563v-205h-563z" />
    <glyph glyph-name="registered" unicode="&#xae;" horiz-adv-x="1638" 
d="M258 717q0 -250 163 -412t399 -162t398 162q163 162 162 412q0 249 -162 411t-399 162t-399 -162t-162 -411zM78 717q0 307 217 524t524 217t524 -217t217 -524t-216 -524q-218 -217 -525 -217t-524 216q-217 218 -217 525zM647 1010v-230h178q98 0 139 31q40 31 40 92
q0 106 -179 107h-178zM504 293v848h325q160 -1 239 -59t79 -185q0 -201 -217 -242l227 -362h-168l-215 356h-127v-356h-143z" />
    <glyph glyph-name="macron" unicode="&#xaf;" horiz-adv-x="569" 
d="M-20 1327v168h610v-168h-610z" />
    <glyph glyph-name="degree" unicode="&#xb0;" horiz-adv-x="819" 
d="M260 1171q0 -61 44 -105t106 -44t105 44q44 44 44 105t-44 105t-105 45q-61 0 -106 -44q-44 -45 -44 -106zM117 1171q0 121 86 207t207 86q120 0 206 -86t86 -207t-86 -207t-206 -85q-120 -1 -207 85q-86 86 -86 207z" />
    <glyph glyph-name="plusminus" unicode="&#xb1;" horiz-adv-x="1228" 
d="M96 0v168h1037v-168h-1037zM96 567v168h434v301h168v-301h435v-168h-435v-301h-168v301h-434z" />
    <glyph glyph-name="two.superior" unicode="&#xb2;" horiz-adv-x="788" 
d="M723 725v-143h-657v135l45 28q279 187 377 336q48 72 49 127q0 55 -37 90t-112 35t-115 -52t-40 -101h-167q0 94 65 179q35 46 105 76t163 29q317 0 318 -247q0 -101 -83 -197t-257 -236q-41 -35 -94 -63v-4l112 8h328z" />
    <glyph glyph-name="three.superior" unicode="&#xb3;" horiz-adv-x="788" 
d="M266 965v118h19q89 0 157 37t68 115q0 41 -35 70t-103 29t-105 -41q-38 -40 -38 -79h-168q0 84 79 167q80 83 240 83t235 -59t75 -149t-59 -143q-59 -52 -148 -64v-5q104 -6 174 -65t70 -167t-95 -180t-263 -71q-168 0 -291 47v146q124 -62 234 -62q234 -1 235 133
q0 139 -225 140h-56z" />
    <glyph glyph-name="acute" unicode="&#xb4;" horiz-adv-x="569" 
d="M223 1188l-129 98l414 344l123 -114z" />
    <glyph glyph-name="mu" unicode="&#xb5;" horiz-adv-x="1366" 
d="M74 897v168h370q-8 -422 -8 -637q0 -116 54 -188t163 -72t187 89t80 235l4 405h-140v168h369l-4 -897h143v-168h-368q0 106 20 236h-4q-35 -115 -132 -188t-207 -73t-155 66h-4l-4 -555h-231l8 1411h-141z" />
    <glyph glyph-name="paragraph" unicode="&#xb6;" horiz-adv-x="1228" 
d="M483 -399v1075q-161 0 -273 106t-112 267q0 199 126 291t351 94h508v-1833h-192v1665h-215v-1665h-193z" />
    <glyph glyph-name="periodcentered" unicode="&#xb7;" horiz-adv-x="606" 
d="M158 573q0 59 43 103t102 43q59 0 103 -43q44 -42 43 -102q0 -60 -43 -103q-42 -43 -102 -43t-103 43t-43 102z" />
    <glyph glyph-name="cedilla" unicode="&#xb8;" horiz-adv-x="569" 
d="M389 -109q180 -1 180 -173q0 -88 -80 -140q-81 -52 -199 -53q-118 0 -214 31l12 127q92 -27 170 -27q119 0 119 75t-137 74h-23v222h143v-136h29z" />
    <glyph glyph-name="one.superior" unicode="&#xb9;" horiz-adv-x="788" 
d="M178 582v131h168l8 587q-31 -27 -57 -43l-156 -96l-75 101l319 182h150l-9 -731h189v-131h-537z" />
    <glyph glyph-name="ordmasculine" unicode="&#xba;" horiz-adv-x="788" 
d="M37 1128q0 144 102 240q103 96 275 96t255 -99t83 -239t-94 -234q-94 -93 -270 -93q-177 0 -264 92q-87 93 -87 237zM205 1127q0 -87 48 -148t141 -61t142 64q48 65 48 163t-50 149q-50 52 -140 52t-140 -66q-49 -66 -49 -153z" />
    <glyph glyph-name="guillemotright" unicode="&#xbb;" horiz-adv-x="1062" 
d="M707 203l-160 127l217 252l-217 256l160 123l274 -316v-131zM242 203l-160 127l217 252l-217 256l160 123l274 -316v-131z" />
    <glyph glyph-name="onequarter" unicode="&#xbc;" horiz-adv-x="1820" 
d="M133 582v131h168l8 587q-31 -27 -57 -43l-156 -96l-76 101l320 182h149l-8 -731h189v-131h-537zM406 -37l888 1587l133 -80l-888 -1587zM1198 369h213l4 358l-4 4l-283 -366q45 4 70 4zM1303 0v131h108v107h-450v122l393 502h229l-4 -493h164v-131h-164v-107h102v-131
h-378z" />
    <glyph glyph-name="onehalf" unicode="&#xbd;" horiz-adv-x="1820" 
d="M1722 143v-143h-657v135l45 29q279 188 378 336q48 72 48 127t-37 90t-111 35t-115 -52q-40 -52 -40 -102h-168q0 94 65 179q35 46 105 76t164 30q317 0 317 -248q0 -101 -83 -197t-257 -235q-41 -35 -94 -64v-4l113 8h327zM133 582v131h168l8 587q-31 -27 -57 -43
l-156 -96l-76 101l320 182h149l-8 -731h189v-131h-537zM406 -37l888 1587l133 -80l-888 -1587z" />
    <glyph glyph-name="threequarters" unicode="&#xbe;" horiz-adv-x="1820" 
d="M283 965v118h18q88 0 157 37t68 115q0 41 -34 70q-35 29 -103 29q-67 0 -105 -41q-38 -40 -38 -79h-168q0 84 79 167t239 83t236 -59q75 -59 75 -149q1 -90 -59 -143q-60 -52 -148 -64v-5q104 -6 174 -65t70 -167t-96 -180q-95 -72 -263 -71q-168 0 -291 47v146
q124 -62 234 -62q236 -1 235 133q0 139 -225 140h-55zM406 -37l888 1587l133 -80l-888 -1587zM1198 369h213l4 358l-4 4l-283 -366q45 4 70 4zM1303 0v131h108v107h-450v122l393 502h229l-4 -493h164v-131h-164v-107h102v-131h-378z" />
    <glyph glyph-name="questiondown" unicode="&#xbf;" horiz-adv-x="985" 
d="M819 932q0 -66 -46 -112q-45 -46 -111 -46t-112 46t-46 112t46 112t112 46t112 -46t45 -112zM821 448q0 -68 -20 -112q-42 -91 -236 -199q-117 -67 -165 -131t-48 -156t79 -150t203 -58t216 43l12 -181q-129 -43 -287 -43q-229 -1 -353 103t-124 272q0 219 217 361
l189 120q51 33 69 59q19 26 19 73t-53 100l202 76l17 -21q63 -88 63 -156z" />
    <glyph glyph-name="Agrave" unicode="&#xc0;" horiz-adv-x="1554" 
d="M840 1479l-408 327l123 115l414 -344zM25 0v168h122l521 1266h254l481 -1266h127v-168h-524v168h131l-123 356h-504l-133 -356h147v-168h-499zM954 705l-141 405q-25 70 -37 131h-4q-14 -68 -39 -131l-158 -405h379z" />
    <glyph glyph-name="Aacute" unicode="&#xc1;" horiz-adv-x="1554" 
d="M717 1479l-129 98l413 344l123 -115zM25 0v168h122l521 1266h254l481 -1266h127v-168h-524v168h131l-123 356h-504l-133 -356h147v-168h-499zM954 705l-141 405q-25 70 -37 131h-4q-14 -68 -39 -131l-158 -405h379z" />
    <glyph glyph-name="Acircumflex" unicode="&#xc2;" horiz-adv-x="1554" 
d="M371 1604l334 286h147l334 -286l-135 -111l-273 242l-274 -242zM25 0v168h122l521 1266h254l481 -1266h127v-168h-524v168h131l-123 356h-504l-133 -356h147v-168h-499zM954 705l-141 405q-25 70 -37 131h-4q-14 -68 -39 -131l-158 -405h379z" />
    <glyph glyph-name="Atilde" unicode="&#xc3;" horiz-adv-x="1554" 
d="M651 1837q70 0 154 -55q93 -56 115 -56q55 -1 96 54l35 41l120 -86l-22 -31q-53 -72 -99 -109t-110 -37t-166 56q-102 55 -129 55q-57 0 -102 -76l-15 -24l-143 73l16 31q18 35 44 67t81 64t125 33zM25 0v168h122l521 1266h254l481 -1266h127v-168h-524v168h131l-123 356
h-504l-133 -356h147v-168h-499zM954 705l-141 405q-25 70 -37 131h-4q-14 -68 -39 -131l-158 -405h379z" />
    <glyph glyph-name="Adieresis" unicode="&#xc4;" horiz-adv-x="1554" 
d="M408 1692q0 59 43 102t102 43t102 -43t43 -102q0 -58 -43 -102t-102 -44t-102 44t-43 102zM858 1692q0 59 43 102t103 43t102 -43q43 -43 43 -102q0 -58 -43 -102t-102 -44t-103 43q-43 44 -43 103zM25 0v168h122l521 1266h254l481 -1266h127v-168h-524v168h131l-123 356
h-504l-133 -356h147v-168h-499zM954 705l-141 405q-25 70 -37 131h-4q-14 -68 -39 -131l-158 -405h379z" />
    <glyph glyph-name="Aring" unicode="&#xc5;" horiz-adv-x="1554" 
d="M688 1677q0 -39 28 -65t62 -25q34 0 63 26q27 27 27 65t-27 64q-28 26 -63 26q-34 0 -62 -26t-28 -65zM557 1677q-1 85 63 147t158 62t158 -61t63 -147q0 -86 -63 -148q-64 -62 -158 -62t-158 62t-63 147zM25 0v168h122l521 1266h254l481 -1266h127v-168h-524v168h131
l-123 356h-504l-133 -356h147v-168h-499zM954 705l-141 405q-25 70 -37 131h-4q-14 -68 -39 -131l-158 -405h379z" />
    <glyph glyph-name="AE" unicode="&#xc6;" horiz-adv-x="2048" 
d="M922 0v168h145l4 442h-471l-242 -442h158v-168h-512v168h125l713 1266h1042l12 -375h-192l-12 207h-387l-5 -475h392v-181h-392l-4 -442h443l16 235h193l-17 -403h-1009zM688 791h383l4 475h-131z" />
    <glyph glyph-name="Ccedilla" unicode="&#xc7;" horiz-adv-x="1402" 
d="M930 -109q180 -1 180 -173q0 -88 -80 -140t-198 -53q-118 0 -216 31l13 127q92 -27 170 -27q119 0 119 75t-138 74h-22v170q-330 25 -502 225t-172 520t211 529t565 209q254 0 447 -78v-366h-205v229q-129 35 -244 35q-254 0 -387 -148t-133 -406q0 -259 135 -414
t354 -154q150 0 256 20l9 258h204l-8 -391q-172 -55 -387 -68v-84h29z" />
    <glyph glyph-name="Egrave" unicode="&#xc8;" horiz-adv-x="1214" 
d="M670 1479l-408 327l123 115l414 -344zM94 0v168h144l8 1098h-166v168h1007l9 -377h-191l-12 209h-416l-4 -443h410v-180h-410l-4 -475h436l17 233h192l-16 -401h-1004z" />
    <glyph glyph-name="Eacute" unicode="&#xc9;" horiz-adv-x="1214" 
d="M547 1479l-129 98l413 344l123 -115zM94 0v168h144l8 1098h-166v168h1007l9 -377h-191l-12 209h-416l-4 -443h410v-180h-410l-4 -475h436l17 233h192l-16 -401h-1004z" />
    <glyph glyph-name="Ecircumflex" unicode="&#xca;" horiz-adv-x="1214" 
d="M201 1604l334 286h147l334 -286l-135 -111l-273 242l-274 -242zM94 0v168h144l8 1098h-166v168h1007l9 -377h-191l-12 209h-416l-4 -443h410v-180h-410l-4 -475h436l17 233h192l-16 -401h-1004z" />
    <glyph glyph-name="Edieresis" unicode="&#xcb;" horiz-adv-x="1214" 
d="M238 1692q0 59 43 102t102 43t102 -43t43 -102q0 -58 -43 -102t-102 -44t-102 44t-43 102zM688 1692q0 59 43 102t103 43t102 -43q43 -43 43 -102q0 -58 -43 -102t-102 -44t-103 43q-43 44 -43 103zM94 0v168h144l8 1098h-166v168h1007l9 -377h-191l-12 209h-416l-4 -443
h410v-180h-410l-4 -475h436l17 233h192l-16 -401h-1004z" />
    <glyph glyph-name="Igrave" unicode="&#xcc;" horiz-adv-x="720" 
d="M422 1479l-408 327l123 115l414 -344zM96 0v168h146l8 1098h-154v168h529v-168h-146l-8 -1098h154v-168h-529z" />
    <glyph glyph-name="Iacute" unicode="&#xcd;" horiz-adv-x="720" 
d="M299 1479l-129 98l414 344l123 -115zM96 0v168h146l8 1098h-154v168h529v-168h-146l-8 -1098h154v-168h-529z" />
    <glyph glyph-name="Icircumflex" unicode="&#xce;" horiz-adv-x="720" 
d="M-47 1604l334 286h147l334 -286l-135 -111l-273 242l-274 -242zM96 0v168h146l8 1098h-154v168h529v-168h-146l-8 -1098h154v-168h-529z" />
    <glyph glyph-name="Idieresis" unicode="&#xcf;" horiz-adv-x="720" 
d="M-10 1692q0 59 43 102t102 43t103 -43t43 -102q0 -58 -43 -102q-42 -44 -102 -44t-103 44t-43 102zM440 1692q0 59 43 102t103 43t102 -43q43 -43 43 -102q0 -58 -43 -102t-102 -44t-103 43q-43 44 -43 103zM96 0v168h146l8 1098h-154v168h529v-168h-146l-8 -1098h154
v-168h-529z" />
    <glyph glyph-name="Eth" unicode="&#xd0;" horiz-adv-x="1593" 
d="M866 815v-156h-407l-4 -491h229q262 0 405 150q142 151 142 409t-138 398t-399 141h-231l-4 -451h407zM80 0v168h145l4 491h-149v156h149l4 451h-153v168h680q342 0 533 -184t191 -506t-195 -533q-196 -211 -531 -211h-678z" />
    <glyph glyph-name="Ntilde" unicode="&#xd1;" horiz-adv-x="1630" 
d="M688 1837q70 0 154 -55q94 -56 116 -56q55 -1 95 54l34 41l121 -86l-22 -31q-54 -72 -100 -109t-109 -37t-165 56q-102 55 -130 55q-57 0 -102 -76l-15 -24l-143 73l16 31q18 35 44 67t81 64t125 33zM88 0v168h139l9 1098h-181v168h377l664 -867q63 -84 143 -215h4
l-8 914h-160v168h500v-168h-139l-9 -1266h-186l-717 930q-70 92 -100 151l-4 -4l8 -909h158v-168h-498z" />
    <glyph glyph-name="Ograve" unicode="&#xd2;" horiz-adv-x="1554" 
d="M840 1479l-408 327l123 115l414 -344zM338 702q0 -226 112 -380t324 -154q133 0 227 58q93 58 137 152q76 166 79 351q0 400 -250 505q-76 32 -174 32q-197 0 -326 -140t-129 -424zM766 -25q-314 -1 -498 193t-184 529t198 548t516 213t495 -192t177 -509
q0 -316 -170 -540q-84 -111 -222 -177t-312 -65z" />
    <glyph glyph-name="Oacute" unicode="&#xd3;" horiz-adv-x="1554" 
d="M717 1479l-129 98l413 344l123 -115zM338 702q0 -226 112 -380t324 -154q133 0 227 58q93 58 137 152q76 166 79 351q0 400 -250 505q-76 32 -174 32q-197 0 -326 -140t-129 -424zM766 -25q-314 -1 -498 193t-184 529t198 548t516 213t495 -192t177 -509
q0 -316 -170 -540q-84 -111 -222 -177t-312 -65z" />
    <glyph glyph-name="Ocircumflex" unicode="&#xd4;" horiz-adv-x="1554" 
d="M371 1604l334 286h147l334 -286l-135 -111l-273 242l-274 -242zM338 702q0 -226 112 -380t324 -154q133 0 227 58q93 58 137 152q76 166 79 351q0 400 -250 505q-76 32 -174 32q-197 0 -326 -140t-129 -424zM766 -25q-314 -1 -498 193t-184 529t198 548t516 213t495 -192
t177 -509q0 -316 -170 -540q-84 -111 -222 -177t-312 -65z" />
    <glyph glyph-name="Otilde" unicode="&#xd5;" horiz-adv-x="1554" 
d="M651 1837q70 0 154 -55q93 -56 115 -56q55 -1 96 54l35 41l120 -86l-22 -31q-53 -72 -99 -109t-110 -37t-166 56q-102 55 -129 55q-57 0 -102 -76l-15 -24l-143 73l16 31q18 35 44 67t81 64t125 33zM338 702q0 -226 112 -380t324 -154q133 0 227 58q93 58 137 152
q76 166 79 351q0 400 -250 505q-76 32 -174 32q-197 0 -326 -140t-129 -424zM766 -25q-314 -1 -498 193t-184 529t198 548t516 213t495 -192t177 -509q0 -316 -170 -540q-84 -111 -222 -177t-312 -65z" />
    <glyph glyph-name="Odieresis" unicode="&#xd6;" horiz-adv-x="1554" 
d="M408 1692q0 59 43 102t102 43t102 -43t43 -102q0 -58 -43 -102t-102 -44t-102 44t-43 102zM858 1692q0 59 43 102t103 43t102 -43q43 -43 43 -102q0 -58 -43 -102t-102 -44t-103 43q-43 44 -43 103zM338 702q0 -226 112 -380t324 -154q133 0 227 58q93 58 137 152
q76 166 79 351q0 400 -250 505q-76 32 -174 32q-197 0 -326 -140t-129 -424zM766 -25q-314 -1 -498 193t-184 529t198 548t516 213t495 -192t177 -509q0 -316 -170 -540q-84 -111 -222 -177t-312 -65z" />
    <glyph glyph-name="multiply" unicode="&#xd7;" horiz-adv-x="1228" 
d="M975 45l-361 361l-360 -361l-113 113l361 360l-361 361l113 112l360 -360l361 360l112 -112l-360 -361l360 -360z" />
    <glyph glyph-name="Oslash" unicode="&#xd8;" horiz-adv-x="1554" 
d="M84 692q0 340 198 553t525 213q166 0 297 -59l141 229l127 -82l-137 -225q236 -190 235 -580q0 -299 -170 -524q-84 -111 -222 -177t-313 -65q-175 0 -312 64l-162 -264l-127 82l162 264q-242 188 -242 571zM781 168q126 0 220 58q93 58 137 152q76 166 79 351
q-1 254 -105 391l-547 -899q90 -53 216 -53zM793 1266q-197 0 -326 -140t-129 -400q0 -259 111 -402l546 897q-84 45 -202 45z" />
    <glyph glyph-name="Ugrave" unicode="&#xd9;" horiz-adv-x="1554" 
d="M840 1479l-408 327l123 115l414 -344zM61 1266v168h525v-168h-146l-2 -719q0 -70 3 -114t23 -98q60 -167 310 -167q109 0 169 17q59 17 107 65t64 114q16 67 19 177l4 725h-168v168h524v-168h-137l-4 -770q0 -266 -160 -404q-139 -117 -424 -117t-426 119
q-76 62 -104 156t-29 307q0 213 4 709h-152z" />
    <glyph glyph-name="Uacute" unicode="&#xda;" horiz-adv-x="1554" 
d="M717 1479l-129 98l413 344l123 -115zM61 1266v168h525v-168h-146l-2 -719q0 -70 3 -114t23 -98q60 -167 310 -167q109 0 169 17q59 17 107 65t64 114q16 67 19 177l4 725h-168v168h524v-168h-137l-4 -770q0 -266 -160 -404q-139 -117 -424 -117t-426 119q-76 62 -104 156
t-29 307q0 213 4 709h-152z" />
    <glyph glyph-name="Ucircumflex" unicode="&#xdb;" horiz-adv-x="1554" 
d="M371 1604l334 286h147l334 -286l-135 -111l-273 242l-274 -242zM61 1266v168h525v-168h-146l-2 -719q0 -70 3 -114t23 -98q60 -167 310 -167q109 0 169 17q59 17 107 65t64 114q16 67 19 177l4 725h-168v168h524v-168h-137l-4 -770q0 -266 -160 -404q-139 -117 -424 -117
t-426 119q-76 62 -104 156t-29 307q0 213 4 709h-152z" />
    <glyph glyph-name="Udieresis" unicode="&#xdc;" horiz-adv-x="1554" 
d="M408 1692q0 59 43 102t102 43t102 -43t43 -102q0 -58 -43 -102t-102 -44t-102 44t-43 102zM858 1692q0 59 43 102t103 43t102 -43q43 -43 43 -102q0 -58 -43 -102t-102 -44t-103 43q-43 44 -43 103zM61 1266v168h525v-168h-146l-2 -719q0 -70 3 -114t23 -98
q60 -167 310 -167q109 0 169 17q59 17 107 65t64 114q16 67 19 177l4 725h-168v168h524v-168h-137l-4 -770q0 -266 -160 -404q-139 -117 -424 -117t-426 119q-76 62 -104 156t-29 307q0 213 4 709h-152z" />
    <glyph glyph-name="Yacute" unicode="&#xdd;" horiz-adv-x="1478" 
d="M678 1479l-129 98l414 344l122 -115zM479 0v168h144l8 424l-498 674h-125v168h524v-168h-139q25 -25 41 -49l330 -449l326 449q12 18 43 49h-162v168h499v-168h-127l-483 -674l-8 -424h152v-168h-525z" />
    <glyph glyph-name="Thorn" unicode="&#xde;" horiz-adv-x="1214" 
d="M80 0v168h145l8 1098h-153v168h528v-168h-145v-99h158q139 0 212 -14q182 -35 265 -194q49 -93 49 -209t-55 -222q-119 -225 -424 -225h-211l-2 -135h153v-168h-528zM618 471q147 0 218 74q70 73 70 197t-81 196q-72 61 -237 61h-127l-4 -528h161z" />
    <glyph glyph-name="germandbls" unicode="&#xdf;" horiz-adv-x="1517" 
d="M115 0v168h129l4 729h-162v168h162l2 102q6 185 152 309t399 123q151 0 302 -52q87 -31 141 -99t54 -166q0 -172 -149 -266l-137 -88q-106 -68 -107 -133q1 -39 19 -59t69 -42l234 -90q104 -42 154 -108t51 -177q0 -159 -117 -247t-287 -88t-334 41v290h180v-143
q74 -20 162 -20t134 42q44 42 44 99t-22 87q-23 30 -84 50l-219 78q-201 72 -201 246q0 76 29 127t102 104l174 127q88 63 88 154q0 57 -68 105q-69 48 -217 48t-235 -82q-86 -82 -86 -219l-4 -950h131v-168h-487z" />
    <glyph glyph-name="agrave" unicode="&#xe0;" horiz-adv-x="1214" 
d="M670 1188l-408 328l123 114l414 -344zM348 288q0 -50 45 -91t125 -41q127 0 201 81t74 189v43q-238 0 -313 -27q-36 -12 -68 -29q-64 -33 -64 -125zM1137 168v-168h-338q0 115 18 221h-4q-92 -246 -354 -246q-174 1 -257 93t-83 213q0 303 459 325l219 12v80
q1 109 -51 166q-52 58 -170 58t-207 -37v-156h-205v264q207 97 427 97t315 -104t95 -304l-8 -514h144z" />
    <glyph glyph-name="aacute" unicode="&#xe1;" horiz-adv-x="1214" 
d="M547 1188l-129 98l413 344l123 -114zM348 288q0 -50 45 -91t125 -41q127 0 201 81t74 189v43q-238 0 -313 -27q-36 -12 -68 -29q-64 -33 -64 -125zM1137 168v-168h-338q0 115 18 221h-4q-92 -246 -354 -246q-174 1 -257 93t-83 213q0 303 459 325l219 12v80
q1 109 -51 166q-52 58 -170 58t-207 -37v-156h-205v264q207 97 427 97t315 -104t95 -304l-8 -514h144z" />
    <glyph glyph-name="acircumflex" unicode="&#xe2;" horiz-adv-x="1214" 
d="M188 1313l334 286h148l334 -286l-136 -111l-272 242l-274 -242zM348 288q0 -50 45 -91t125 -41q127 0 201 81t74 189v43q-238 0 -313 -27q-36 -12 -68 -29q-64 -33 -64 -125zM1137 168v-168h-338q0 115 18 221h-4q-92 -246 -354 -246q-174 1 -257 93t-83 213
q0 303 459 325l219 12v80q1 109 -51 166q-52 58 -170 58t-207 -37v-156h-205v264q207 97 427 97t315 -104t95 -304l-8 -514h144z" />
    <glyph glyph-name="atilde" unicode="&#xe3;" horiz-adv-x="1214" 
d="M470 1546q71 0 153 -55q93 -55 115 -55q46 0 70 23q23 23 38 44l22 27l121 -86l-22 -31q-53 -73 -99 -109t-110 -36t-166 55t-129 55q-57 0 -103 -75l-14 -25l-143 74l16 30q18 35 44 67q26 33 81 65t126 32zM348 288q0 -50 45 -91t125 -41q127 0 201 81t74 189v43
q-238 0 -313 -27q-36 -12 -68 -29q-64 -33 -64 -125zM1137 168v-168h-338q0 115 18 221h-4q-92 -246 -354 -246q-174 1 -257 93t-83 213q0 303 459 325l219 12v80q1 109 -51 166q-52 58 -170 58t-207 -37v-156h-205v264q207 97 427 97t315 -104t95 -304l-8 -514h144z" />
    <glyph glyph-name="adieresis" unicode="&#xe4;" horiz-adv-x="1214" 
d="M225 1401q0 59 43 102q42 43 102 43t103 -43t43 -102t-43 -103t-102 -43q-59 0 -103 43q-43 44 -43 103zM676 1401q0 59 43 102t102 43t103 -43t43 -102q0 -59 -43 -103q-42 -44 -102 -43q-60 -1 -103 43t-43 103zM348 288q0 -50 45 -91t125 -41q127 0 201 81t74 189v43
q-238 0 -313 -27q-36 -12 -68 -29q-64 -33 -64 -125zM1137 168v-168h-338q0 115 18 221h-4q-92 -246 -354 -246q-174 1 -257 93t-83 213q0 303 459 325l219 12v80q1 109 -51 166q-52 58 -170 58t-207 -37v-156h-205v264q207 97 427 97t315 -104t95 -304l-8 -514h144z" />
    <glyph glyph-name="aring" unicode="&#xe5;" horiz-adv-x="1214" 
d="M506 1366q0 -38 28 -64t62 -26t62 26t28 64t-28 65q-28 25 -62 25t-62 -26t-28 -64zM375 1366q0 86 63 147q64 61 158 61t158 -60q64 -62 63 -148q0 -86 -63 -147q-64 -61 -158 -61t-158 60q-64 62 -63 148zM348 288q0 -50 45 -91t125 -41q127 0 201 81t74 189v43
q-238 0 -313 -27q-36 -12 -68 -29q-64 -33 -64 -125zM1137 168v-168h-338q0 115 18 221h-4q-92 -246 -354 -246q-174 1 -257 93t-83 213q0 303 459 325l219 12v80q1 109 -51 166q-52 58 -170 58t-207 -37v-156h-205v264q207 97 427 97t315 -104t95 -304l-8 -514h144z" />
    <glyph glyph-name="ae" unicode="&#xe6;" horiz-adv-x="1820" 
d="M1499 664q0 96 -59 177t-191 81q-248 0 -248 -291l498 20v13zM348 288q0 -50 45 -91t125 -41q127 0 201 81t74 189v43q-238 0 -313 -27q-36 -12 -68 -29q-64 -33 -64 -125zM164 729v264q36 12 80 28q174 65 336 69q266 0 348 -203q37 88 128 145q91 58 216 58t217 -48
t142 -129q98 -161 98 -393v-24l-728 -21q0 -319 357 -319q150 0 325 80l-8 -185q-141 -76 -352 -76q-356 0 -438 254h-4q-45 -133 -139 -193t-272 -60t-264 92t-87 213q0 303 459 325l219 12v80q1 109 -51 166q-52 58 -170 58t-207 -37v-156h-205z" />
    <glyph glyph-name="ccedilla" unicode="&#xe7;" horiz-adv-x="1024" 
d="M711 -109q180 -1 180 -173q0 -88 -80 -140q-79 -52 -197 -53q-118 0 -217 31l13 127q92 -27 170 -27q119 0 118 76q0 74 -137 73h-22v177q-240 30 -353 184t-112 360q0 252 150 408q151 156 423 156q182 0 303 -56v-301h-192v158q-59 18 -135 18q-154 0 -237 -101
t-83 -260q0 -160 89 -270q90 -110 270 -110t286 61l-12 -198q-115 -47 -254 -56v-84h29z" />
    <glyph glyph-name="egrave" unicode="&#xe8;" horiz-adv-x="1138" 
d="M631 1188l-408 328l123 114l414 -344zM836 651v21q0 88 -62 169t-192 81q-131 0 -195 -79t-72 -192h521zM588 1090q242 0 365 -154q124 -154 124 -410v-30h-762q1 -154 103 -247t273 -93t331 82l-12 -189q-176 -74 -375 -74q-262 2 -412 152q-149 151 -149 399t136 406
t378 158z" />
    <glyph glyph-name="eacute" unicode="&#xe9;" horiz-adv-x="1138" 
d="M508 1188l-129 98l414 344l122 -114zM836 651v21q0 88 -62 169t-192 81q-131 0 -195 -79t-72 -192h521zM588 1090q242 0 365 -154q124 -154 124 -410v-30h-762q1 -154 103 -247t273 -93t331 82l-12 -189q-176 -74 -375 -74q-262 2 -412 152q-149 151 -149 399t136 406
t378 158z" />
    <glyph glyph-name="ecircumflex" unicode="&#xea;" horiz-adv-x="1138" 
d="M162 1313l334 286h147l334 -286l-135 -111l-273 242l-274 -242zM836 651v21q0 88 -62 169t-192 81q-131 0 -195 -79t-72 -192h521zM588 1090q242 0 365 -154q124 -154 124 -410v-30h-762q1 -154 103 -247t273 -93t331 82l-12 -189q-176 -74 -375 -74q-262 2 -412 152
q-149 151 -149 399t136 406t378 158z" />
    <glyph glyph-name="edieresis" unicode="&#xeb;" horiz-adv-x="1138" 
d="M199 1401q0 59 43 102t102 43t102 -43t43 -102t-43 -103t-102 -43q-59 -1 -102 43t-43 103zM649 1401q0 59 43 102q42 43 102 43t103 -43t43 -102t-43 -103t-102 -43q-59 0 -103 43q-43 44 -43 103zM836 651v21q0 88 -62 169t-192 81q-131 0 -195 -79t-72 -192h521z
M588 1090q242 0 365 -154q124 -154 124 -410v-30h-762q1 -154 103 -247t273 -93t331 82l-12 -189q-176 -74 -375 -74q-262 2 -412 152q-149 151 -149 399t136 406t378 158z" />
    <glyph glyph-name="igrave" unicode="&#xec;" horiz-adv-x="645" 
d="M385 1188l-408 328l123 114l414 -344zM80 0v168h139l4 729h-162v168h392l-4 -897h143v-168h-512z" />
    <glyph glyph-name="iacute" unicode="&#xed;" horiz-adv-x="645" 
d="M262 1188l-129 98l414 344l123 -114zM80 0v168h139l4 729h-162v168h392l-4 -897h143v-168h-512z" />
    <glyph glyph-name="icircumflex" unicode="&#xee;" horiz-adv-x="645" 
d="M-84 1313l334 286h147l334 -286l-135 -111l-272 242l-275 -242zM80 0v168h139l4 729h-162v168h392l-4 -897h143v-168h-512z" />
    <glyph glyph-name="idieresis" unicode="&#xef;" horiz-adv-x="645" 
d="M-47 1401q0 59 43 102t102 43q58 0 102 -43t44 -102t-43 -103t-103 -43q-60 -1 -102 43q-43 44 -43 103zM403 1401q0 59 43 102q42 43 102 43t103 -43t43 -102t-43 -103t-102 -43q-59 0 -103 43q-43 44 -43 103zM80 0v168h139l4 729h-162v168h392l-4 -897h143v-168h-512z
" />
    <glyph glyph-name="eth" unicode="&#xf0;" horiz-adv-x="1214" 
d="M1147 576q0 -266 -140 -434q-139 -167 -407 -167t-400 155q-132 156 -132 396t150 402q151 162 374 162q152 0 242 -72l4 4q-68 133 -205 266l-203 -104l-92 104l188 96q-76 63 -168 119l174 96q94 -57 175 -120l186 96l92 -105l-172 -90q166 -172 250 -355t84 -449z
M621 897q-158 -1 -235 -111t-77 -262t75 -254q74 -102 222 -102t224 108t75 277q0 170 -79 257t-205 87z" />
    <glyph glyph-name="ntilde" unicode="&#xf1;" horiz-adv-x="1366" 
d="M557 1546q70 0 154 -55q93 -55 115 -55q57 0 96 53l34 41l121 -86l-22 -31q-53 -73 -99 -109t-110 -36t-166 55t-129 55q-57 0 -102 -75l-15 -25l-143 74l16 30q18 35 44 67q26 33 81 65t125 32zM729 897q-113 0 -191 -88t-81 -236l-8 -405h143v-168h-494v168h121l4 729
h-149v168h379q0 -106 -21 -236h4q35 113 130 187t262 74q166 0 260 -109t94 -303l-8 -510h139v-168h-490v168h121l8 469q0 117 -55 189t-168 71z" />
    <glyph glyph-name="ograve" unicode="&#xf2;" horiz-adv-x="1214" 
d="M670 1188l-408 328l123 114l414 -344zM68 528q0 242 155 402q156 160 402 160q141 0 246 -50t163 -135q114 -166 113 -392q0 -227 -143 -383q-144 -156 -408 -155q-264 0 -396 155q-132 156 -132 398zM621 897q-158 -1 -235 -111t-77 -262t75 -254q74 -102 222 -102
t224 108t75 277q0 170 -79 257t-205 87z" />
    <glyph glyph-name="oacute" unicode="&#xf3;" horiz-adv-x="1214" 
d="M547 1188l-129 98l413 344l123 -114zM68 528q0 242 155 402q156 160 402 160q141 0 246 -50t163 -135q114 -166 113 -392q0 -227 -143 -383q-144 -156 -408 -155q-264 0 -396 155q-132 156 -132 398zM621 897q-158 -1 -235 -111t-77 -262t75 -254q74 -102 222 -102
t224 108t75 277q0 170 -79 257t-205 87z" />
    <glyph glyph-name="ocircumflex" unicode="&#xf4;" horiz-adv-x="1214" 
d="M201 1313l334 286h147l334 -286l-135 -111l-273 242l-274 -242zM68 528q0 242 155 402q156 160 402 160q141 0 246 -50t163 -135q114 -166 113 -392q0 -227 -143 -383q-144 -156 -408 -155q-264 0 -396 155q-132 156 -132 398zM621 897q-158 -1 -235 -111t-77 -262
t75 -254q74 -102 222 -102t224 108t75 277q0 170 -79 257t-205 87z" />
    <glyph glyph-name="otilde" unicode="&#xf5;" horiz-adv-x="1214" 
d="M482 1546q71 0 153 -55q94 -55 124 -55t50 16q29 24 49 51l23 27l120 -86l-22 -31q-53 -73 -99 -109t-110 -36t-166 55t-129 55q-57 0 -102 -75l-15 -25l-143 74l16 30q18 35 44 67q26 33 81 65t126 32zM68 528q0 242 155 402q156 160 402 160q141 0 246 -50t163 -135
q114 -166 113 -392q0 -227 -143 -383q-144 -156 -408 -155q-264 0 -396 155q-132 156 -132 398zM621 897q-158 -1 -235 -111t-77 -262t75 -254q74 -102 222 -102t224 108t75 277q0 170 -79 257t-205 87z" />
    <glyph glyph-name="odieresis" unicode="&#xf6;" horiz-adv-x="1214" 
d="M238 1401q0 59 43 102t102 43t102 -43t43 -102t-43 -103t-102 -43q-59 -1 -102 43t-43 103zM688 1401q0 59 43 102t103 43t102 -43q43 -43 43 -102t-43 -103t-102 -43q-59 0 -103 43q-43 44 -43 103zM68 528q0 242 155 402q156 160 402 160q141 0 246 -50t163 -135
q114 -166 113 -392q0 -227 -143 -383q-144 -156 -408 -155q-264 0 -396 155q-132 156 -132 398zM621 897q-158 -1 -235 -111t-77 -262t75 -254q74 -102 222 -102t224 108t75 277q0 170 -79 257t-205 87z" />
    <glyph glyph-name="divide" unicode="&#xf7;" horiz-adv-x="1228" 
d="M469 915q0 59 43 103t102 43q58 0 102 -43q44 -42 44 -102t-43 -103t-103 -43t-102 43q-43 43 -43 102zM469 121q0 59 43 102t102 43q58 0 102 -43t44 -102t-43 -103t-103 -43q-60 -1 -102 43q-43 44 -43 103zM96 434v168h1037v-168h-1037z" />
    <glyph glyph-name="oslash" unicode="&#xf8;" horiz-adv-x="1214" 
d="M604 168q150 0 226 108t75 266q0 158 -63 244l-365 -589q51 -29 127 -29zM68 504q0 266 155 426q156 160 402 160q121 0 211 -37l116 190l123 -78l-112 -184q184 -154 184 -455q0 -240 -143 -396t-406 -155q-135 0 -231 43l-136 -221l-122 82l131 213q-172 146 -172 412z
M621 897q-158 0 -235 -111q-76 -111 -76 -254t57 -235l360 580q-47 20 -106 20z" />
    <glyph glyph-name="ugrave" unicode="&#xf9;" horiz-adv-x="1366" 
d="M745 1188l-407 328l123 114l413 -344zM74 897v168h370q-8 -422 -8 -637q0 -116 54 -188t163 -72t187 89t80 235l4 405h-140v168h369l-4 -897h143v-168h-368q0 106 20 236h-4q-31 -117 -137 -189t-236 -72q-170 0 -265 110t-95 298q0 287 8 514h-141z" />
    <glyph glyph-name="uacute" unicode="&#xfa;" horiz-adv-x="1366" 
d="M623 1188l-129 98l413 344l123 -114zM74 897v168h370q-8 -422 -8 -637q0 -116 54 -188t163 -72t187 89t80 235l4 405h-140v168h369l-4 -897h143v-168h-368q0 106 20 236h-4q-31 -117 -137 -189t-236 -72q-170 0 -265 110t-95 298q0 287 8 514h-141z" />
    <glyph glyph-name="ucircumflex" unicode="&#xfb;" horiz-adv-x="1366" 
d="M276 1313l334 286h148l334 -286l-136 -111l-272 242l-274 -242zM74 897v168h370q-8 -422 -8 -637q0 -116 54 -188t163 -72t187 89t80 235l4 405h-140v168h369l-4 -897h143v-168h-368q0 106 20 236h-4q-31 -117 -137 -189t-236 -72q-170 0 -265 110t-95 298q0 287 8 514
h-141z" />
    <glyph glyph-name="udieresis" unicode="&#xfc;" horiz-adv-x="1366" 
d="M293 1401q0 59 43 102t102 43q58 0 102 -43t44 -102t-43 -103t-103 -43q-60 -1 -102 43q-43 44 -43 103zM743 1401q0 59 43 102q42 43 102 43t103 -43t43 -102t-43 -103t-102 -43q-59 0 -103 43q-43 44 -43 103zM74 897v168h370q-8 -422 -8 -637q0 -116 54 -188t163 -72
t187 89t80 235l4 405h-140v168h369l-4 -897h143v-168h-368q0 106 20 236h-4q-31 -117 -137 -189t-236 -72q-170 0 -265 110t-95 298q0 287 8 514h-141z" />
    <glyph glyph-name="yacute" unicode="&#xfd;" horiz-adv-x="1214" 
d="M547 1188l-129 98l413 344l123 -114zM-6 897v168h487v-168h-119l205 -547q13 -31 29 -92t18 -68h4q14 63 48 160l188 547h-139v168h450v-168h-106l-324 -891q-106 -295 -168 -375q-131 -170 -366 -170q-86 0 -146 23v180q51 -22 145 -22t162 58q70 58 132 220l8 23
l-393 954h-115z" />
    <glyph glyph-name="thorn" unicode="&#xfe;" 
d="M428 498v-297q74 -45 216 -46t232 115q91 116 89 275q-2 160 -69 256q-68 96 -198 96q-130 -1 -200 -105t-70 -294zM76 -514v168h119l8 1753h-150v168h381l-8 -510q0 -117 -27 -217h4q94 242 355 242q198 0 322 -136t124 -388t-152 -422q-153 -169 -421 -169
q-121 0 -211 35l-4 -356h170v-168h-510z" />
    <glyph glyph-name="ydieresis" unicode="&#xff;" horiz-adv-x="1214" 
d="M238 1401q0 59 43 102t102 43t102 -43t43 -102t-43 -103t-102 -43q-59 -1 -102 43t-43 103zM688 1401q0 59 43 102t103 43t102 -43q43 -43 43 -102t-43 -103t-102 -43q-59 0 -103 43q-43 44 -43 103zM-6 897v168h487v-168h-119l205 -547q13 -31 29 -92t18 -68h4
q14 63 48 160l188 547h-139v168h450v-168h-106l-324 -891q-106 -295 -168 -375q-131 -170 -366 -170q-86 0 -146 23v180q51 -22 145 -22t162 58q70 58 132 220l8 23l-393 954h-115z" />
    <glyph glyph-name="dotlessi" unicode="&#x131;" horiz-adv-x="645" 
d="M80 0v168h139l4 729h-162v168h392l-4 -897h143v-168h-512z" />
    <glyph glyph-name="Lslash" unicode="&#x141;" horiz-adv-x="1214" 
d="M80 0v168h145l4 387l-149 -106v180l149 106l4 531h-153v168h528v-168h-145l-4 -367l301 217v-180l-301 -215l-4 -553h426l20 242h193l-21 -410h-993z" />
    <glyph glyph-name="lslash" unicode="&#x142;" horiz-adv-x="645" 
d="M90 0v168h129l4 502l-153 -117v168l153 117l4 569h-186v168h416l-4 -559l159 123v-168l-159 -123l-4 -680h143v-168h-502z" />
    <glyph glyph-name="OE" unicode="&#x152;" horiz-adv-x="2086" 
d="M1749 823v-180h-424l-4 -475h455l16 233h195l-21 -401h-862l-275 -12q-345 0 -545 183t-200 540q0 241 106 409q205 326 687 326q78 0 133 -6l102 -6h842l12 -377h-192l-13 209h-432l-4 -443h424zM338 708q0 -264 138 -402t407 -138q47 0 207 6l8 1079q-127 12 -180 13
q-274 0 -427 -148t-153 -410z" />
    <glyph glyph-name="oe" unicode="&#x153;" horiz-adv-x="1896" 
d="M1077 651h498v13q0 96 -59 177q-58 81 -184 81t-190 -73t-65 -198zM313 532q0 -170 73 -273t208 -103t201 76t65 264v104q0 166 -65 238q-66 72 -201 72t-208 -104t-73 -274zM1426 -25q-184 1 -289 47q-106 46 -170 175q-106 -221 -392 -222q-247 1 -369 145t-122 401
t134 413t386 156q293 0 387 -213q39 81 134 147t221 66t219 -48q92 -48 142 -129q99 -162 97 -393v-24h-727q0 -340 357 -340q149 0 325 80l-8 -185q-141 -76 -325 -76z" />
    <glyph glyph-name="Scaron" unicode="&#x160;" horiz-adv-x="1251" 
d="M553 1524l-334 286l135 111l273 -242l274 242l133 -111l-334 -286h-147zM109 397h229v-190q98 -51 248 -51t233 61q82 61 82 174q0 82 -51 125t-172 78l-254 72q-311 90 -311 372q0 203 151 312q152 109 389 108q188 0 434 -69v-318h-217v172q-88 35 -228 35t-214 -58
t-74 -146t56 -132q56 -43 165 -72l222 -57q346 -90 346 -385q1 -213 -147 -333t-404 -120q-94 0 -246 22t-237 54v346z" />
    <glyph glyph-name="scaron" unicode="&#x161;" horiz-adv-x="1062" 
d="M459 1233l-334 287l135 110l272 -241l275 241l133 -110l-334 -287h-147zM973 330q0 -350 -477 -355q-213 0 -387 64l-5 289h205l4 -142q143 -43 231 -43t149 37q63 38 63 106t-40 98t-114 44l-170 31q-244 41 -313 169q-29 54 -29 126q0 174 128 255t304 81t391 -70
l5 -260h-205l-4 127q-61 35 -174 35q-215 0 -216 -129q0 -55 36 -80t100 -39l260 -51q98 -18 178 -78q80 -59 80 -215z" />
    <glyph glyph-name="Ydieresis" unicode="&#x178;" horiz-adv-x="1478" 
d="M369 1692q0 59 43 102t102 43t102 -43t43 -102q0 -58 -43 -102t-102 -44t-102 44t-43 102zM819 1692q0 59 43 102q42 43 102 43t103 -43t43 -102q0 -58 -43 -102t-102 -44t-103 43q-43 44 -43 103zM479 0v168h144l8 424l-498 674h-125v168h524v-168h-139q25 -25 41 -49
l330 -449l326 449q12 18 43 49h-162v168h499v-168h-127l-483 -674l-8 -424h152v-168h-525z" />
    <glyph glyph-name="Zcaron" unicode="&#x17d;" horiz-adv-x="1327" 
d="M590 1524l-334 286l135 111l273 -242l274 242l133 -111l-334 -286h-147zM90 0v160l811 1057q20 27 45 49h-590l-16 -207h-205l17 375h1073v-172l-801 -1045q-18 -25 -43 -49h635l16 207h205l-16 -375h-1131z" />
    <glyph glyph-name="zcaron" unicode="&#x17e;" horiz-adv-x="1099" 
d="M477 1233l-334 287l136 110l272 -241l274 241l133 -110l-333 -287h-148zM82 0v168l590 674q14 16 59 55h-414l-16 -158h-192l16 326h885v-172l-578 -653q-14 -16 -74 -72h451l16 164h193l-17 -332h-919z" />
    <glyph glyph-name="florin" unicode="&#x192;" horiz-adv-x="1212" 
d="M236 659v168h213l20 213q45 424 455 424q117 0 206 -22l-14 -172q-37 14 -141 14q-156 0 -215 -70t-74 -192l-20 -195h262v-168h-277l-51 -602q-16 -207 -125 -331t-287 -125q-111 0 -190 28l12 170q6 0 53 -9t87 -9q205 0 233 297l51 581h-198z" />
    <glyph glyph-name="circumflex" unicode="&#x2c6;" horiz-adv-x="569" 
d="M-123 1313l334 286h147l334 -286l-135 -111l-272 242l-275 -242z" />
    <glyph glyph-name="caron" unicode="&#x2c7;" horiz-adv-x="569" 
d="M211 1233l-334 287l135 110l273 -241l274 241l133 -110l-334 -287h-147z" />
    <glyph glyph-name="uni02C9" unicode="&#x2c9;" horiz-adv-x="569" 
d="M-20 1327v168h610v-168h-610z" />
    <glyph glyph-name="breve" unicode="&#x2d8;" horiz-adv-x="569" 
d="M288 1411q159 0 201 162l13 47l157 -39l-14 -49q-90 -276 -364 -276t-357 276l-14 49l164 39l12 -47q43 -162 202 -162z" />
    <glyph glyph-name="dotaccent" unicode="&#x2d9;" horiz-adv-x="569" 
d="M139 1401q0 59 43 102q42 43 102 43t103 -43t43 -102t-43 -103t-102 -43q-59 0 -103 43q-43 44 -43 103z" />
    <glyph glyph-name="ring" unicode="&#x2da;" horiz-adv-x="569" 
d="M195 1366q-1 -38 27 -64t63 -26t63 26t27 64q0 38 -28 65q-29 25 -63 25t-62 -25q-27 -26 -27 -65zM63 1366q-1 86 63 147t158 61t158 -60q64 -62 64 -148t-64 -147t-157 -61q-94 0 -158 60q-64 62 -64 148z" />
    <glyph glyph-name="ogonek" unicode="&#x2db;" horiz-adv-x="569" 
d="M344 -248q0 -96 117 -96q57 0 114 20l25 -120q-92 -31 -194 -31t-178 51q-77 51 -76 152q0 132 141 239q21 17 80 60h131q-82 -89 -121 -149t-39 -126z" />
    <glyph glyph-name="tilde" unicode="&#x2dc;" horiz-adv-x="569" 
d="M159 1546q71 0 152 -55q93 -55 115 -55q48 0 68 20q19 20 41 47l22 27l121 -86l-23 -31q-53 -73 -99 -109t-110 -36t-165 55q-102 55 -129 55q-57 0 -103 -75l-14 -25l-144 74l17 30q18 35 44 67q26 33 81 65t126 32z" />
    <glyph glyph-name="hungarumlaut" unicode="&#x2dd;" horiz-adv-x="569" 
d="M449 1188l-130 98l414 344l123 -114zM-2 1188l-129 98l414 344l123 -114z" />
    <glyph glyph-name="uni03A9" unicode="&#x3a9;" horiz-adv-x="1560" 
d="M410 166v6q-123 102 -203 258t-80 352q0 291 186 486q186 194 474 194t466 -200t179 -469q0 -201 -83 -363t-206 -258v-6h317v-166h-545v123q131 80 220 241q88 161 88 390q0 137 -49 258q-50 122 -152 202t-238 80q-200 0 -324 -156t-124 -382t90 -392t217 -241v-123
h-547v166h314z" />
    <glyph glyph-name="uni03BC" unicode="&#x3bc;" horiz-adv-x="1366" 
d="M74 897v168h370q-8 -422 -8 -637q0 -116 54 -188t163 -72t187 89t80 235l4 405h-140v168h369l-4 -897h143v-168h-368q0 106 20 236h-4q-35 -115 -132 -188t-207 -73t-155 66h-4l-4 -555h-231l8 1411h-141z" />
    <glyph glyph-name="pi" unicode="&#x3c0;" horiz-adv-x="1263" 
d="M1042 903v-592q0 -207 29 -311h-201q-37 59 -36 297v606h-357q-8 -209 -51 -487t-98 -416h-203q57 164 100 434t47 469q-162 0 -231 -24l-27 135q92 61 328 61h885l-19 -172h-166z" />
    <glyph glyph-name="endash" unicode="&#x2013;" horiz-adv-x="1024" 
d="M0 492v180h1024v-180h-1024z" />
    <glyph glyph-name="emdash" unicode="&#x2014;" horiz-adv-x="2048" 
d="M0 492v180h2048v-180h-2048z" />
    <glyph glyph-name="quoteleft" unicode="&#x2018;" horiz-adv-x="606" 
d="M298 903q-77 0 -128 72t-51 166q0 93 47 201t139 190l78 67l104 -102l-34 -35q-105 -104 -105 -174t53 -142q53 -71 53 -115t-39 -86q-40 -42 -117 -42z" />
    <glyph glyph-name="quoteright" unicode="&#x2019;" horiz-adv-x="606" 
d="M258 1227q0 59 -53 130t-53 115t39 86q40 42 117 42t128 -72t51 -166t-47 -202t-139 -189l-78 -68l-104 103l35 34q104 104 104 187z" />
    <glyph glyph-name="quotesinglbase" unicode="&#x201a;" horiz-adv-x="606" 
d="M258 -88q0 59 -53 130t-53 115t39 86q40 42 117 42t128 -72t51 -166t-47 -202t-139 -189l-78 -68l-104 103l35 35q104 104 104 186z" />
    <glyph glyph-name="quotedblleft" unicode="&#x201c;" horiz-adv-x="985" 
d="M764 1276q0 -59 53 -130t53 -115t-40 -86t-116 -42t-128 72q-51 72 -51 166q0 93 47 201t139 190l78 67l104 -102l-35 -35q-104 -104 -104 -186zM418 1031q0 -44 -40 -86t-117 -42t-128 72t-51 166q0 93 47 201t139 190l78 67l105 -102l-35 -35q-104 -104 -104 -174
t52 -142q54 -71 54 -115z" />
    <glyph glyph-name="quotedblright" unicode="&#x201d;" horiz-adv-x="985" 
d="M221 1227q0 59 -53 130t-53 115t40 86q41 42 117 42t127 -72q103 -145 4 -368q-47 -108 -139 -189l-78 -68l-104 103l35 34q104 104 104 187zM903 1362q0 -94 -47 -202t-139 -189l-78 -68l-104 103l34 34q105 104 105 175t-53 142t-53 115t39 86q40 42 117 42t128 -72
t51 -166z" />
    <glyph glyph-name="quotedblbase" unicode="&#x201e;" horiz-adv-x="985" 
d="M221 -88q0 59 -53 130t-53 115t40 86q41 42 117 42t127 -72q103 -145 4 -368q-47 -108 -139 -189l-78 -68l-104 103l35 35q104 104 104 186zM724 285q77 0 128 -72t51 -166t-47 -202t-139 -189l-78 -68l-104 103l34 35q105 104 105 174t-53 142q-53 71 -53 115t39 86
q40 42 117 42z" />
    <glyph glyph-name="dagger" unicode="&#x2020;" horiz-adv-x="1212" 
d="M72 831v168h436l4 435h193l-5 -435h441v-168h-441l-8 -1220h-192l8 1220h-436z" />
    <glyph glyph-name="daggerdbl" unicode="&#x2021;" horiz-adv-x="1212" 
d="M86 106v168h424l4 525h-424v168h424l4 467h193l-4 -467h419v-168h-419l-5 -525h420v-168h-420l-4 -495h-192l4 495h-424z" />
    <glyph glyph-name="bullet" unicode="&#x2022;" horiz-adv-x="1024" 
d="M154 717q0 150 104 254t254 104t254 -104t104 -254t-104 -254q-104 -105 -254 -105t-254 104t-104 255z" />
    <glyph glyph-name="ellipsis" unicode="&#x2026;" horiz-adv-x="2048" 
d="M1548 127q0 66 46 112t112 46t112 -46t46 -112t-46 -112t-112 -46t-112 46t-46 112zM866 127q0 66 46 112t112 46t112 -46t46 -112t-46 -112t-112 -46t-112 46t-46 112zM184 127q0 66 46 112t112 46t112 -46t46 -112t-46 -112t-112 -46t-112 46t-46 112z" />
    <glyph glyph-name="perthousand" unicode="&#x2030;" horiz-adv-x="2390" 
d="M266 -37l944 1587l133 -80l-944 -1587zM2003 494q-80 0 -124 -52t-42 -139q2 -88 44 -139t124 -51t123 51t41 139q0 191 -166 191zM1669 296q0 148 94 244q95 96 245 97q150 0 240 -85t89 -242q0 -157 -91 -249t-242 -92t-243 90q-92 89 -92 237zM1245 494
q-80 0 -124 -52t-42 -139q2 -88 44 -139t124 -51t123 51t41 139q0 191 -166 191zM1246 -31q-150 0 -242 90q-92 89 -92 237t93 244q95 96 245 97q150 0 240 -85t89 -242q0 -157 -91 -249t-242 -92zM387 1321q-80 0 -124 -51q-44 -52 -42 -140t44 -139t124 -51t123 51t41 139
q0 191 -166 191zM53 1124q0 148 94 244q95 96 245 96t240 -85t89 -241q0 -156 -91 -249q-91 -92 -242 -92t-243 90t-92 237z" />
    <glyph glyph-name="guilsinglleft" unicode="&#x2039;" horiz-adv-x="606" 
d="M86 649l274 312l160 -127l-217 -252l217 -256l-160 -123l-274 315v131z" />
    <glyph glyph-name="guilsinglright" unicode="&#x203a;" horiz-adv-x="606" 
d="M246 203l-160 127l217 252l-217 256l160 123l274 -316v-131z" />
    <glyph glyph-name="fraction" unicode="&#x2044;" horiz-adv-x="342" 
d="M-340 -37l889 1587l133 -80l-889 -1587z" />
    <glyph glyph-name="Euro" unicode="&#x20ac;" horiz-adv-x="1212" 
d="M1165 1096h-168v147q-98 33 -182 33q-293 0 -379 -326h604l-77 -164h-553q-2 -18 -2 -63v-37h528l-78 -164h-428q82 -358 391 -358q168 0 332 88l-4 -209q-150 -68 -342 -68q-259 -1 -409 143t-197 404h-158l78 164h65v100h-143l78 164h92q53 232 209 370t385 138
q157 0 358 -82v-280z" />
    <glyph glyph-name="afii61289" unicode="&#x2113;" horiz-adv-x="1077" 
d="M428 1083v-405q303 322 303 553q0 203 -141 203q-66 0 -114 -84t-48 -267zM604 -23q-174 0 -267 105t-104 280q-111 -86 -118 -92l-58 113q14 12 79 63t95 80v541q-1 264 101 389t248 125t218 -99t72 -266q-1 -320 -442 -729l2 -69q2 -135 64 -206t153 -71q90 1 166 59
t125 142l92 -86q-150 -279 -426 -279z" />
    <glyph glyph-name="trademark" unicode="&#x2122;" horiz-adv-x="2027" 
d="M1696 582v671h-4l-248 -671h-115l-248 671h-4v-671h-168v852h248l229 -607l230 607h248v-852h-168zM315 582v708h-249v144h679v-144h-249v-708h-181z" />
    <glyph glyph-name="Omega" unicode="&#x2126;" horiz-adv-x="1560" 
d="M410 166v6q-123 102 -203 258t-80 352q0 291 186 486q186 194 474 194t466 -200t179 -469q0 -201 -83 -363t-206 -258v-6h317v-166h-545v123q131 80 220 241q88 161 88 390q0 137 -49 258q-50 122 -152 202t-238 80q-200 0 -324 -156t-124 -382t90 -392t217 -241v-123
h-547v166h314z" />
    <glyph glyph-name="estimated" unicode="&#x212e;" horiz-adv-x="1802" 
d="M1425 750v407q0 31 -20 49q-213 213 -504 213t-506 -219q-20 -18 -20 -51v-399q0 -14 10 -15h1032q8 1 8 15zM1731 696h-1346q-10 0 -10 -10v-405q0 -27 18 -48q211 -221 508 -221q158 0 296 67t239 181h120q-116 -133 -288 -211t-369 -78q-344 0 -587 218
q-242 217 -242 527t242 529q243 219 588 219t588 -219t243 -528v-21z" />
    <glyph glyph-name="partialdiff" unicode="&#x2202;" horiz-adv-x="1206" 
d="M535 145h2q133 1 223 141t112 332q-25 74 -103 143q-79 69 -193 69t-200 -110q-87 -110 -87 -253t68 -233q69 -89 178 -89zM540 1614q228 0 393 -207t165 -580t-154 -611t-428 -239q-206 -1 -318 147t-112 337q0 236 134 383t327 147q127 -1 218 -65t128 -129h2
q2 23 2 84q0 245 -112 405q-113 160 -277 160t-289 -98l-65 147q158 119 386 119z" />
    <glyph glyph-name="Delta" unicode="&#x2206;" horiz-adv-x="1413" 
d="M274 164h850l-284 719q-16 49 -69 189q-52 140 -66 190h-9q-10 -39 -57 -168t-64 -179zM61 0v127l527 1350h243l519 -1348v-129h-1289z" />
    <glyph glyph-name="product" unicode="&#x220f;" horiz-adv-x="1529" 
d="M1475 1257h-232v-1456h-203v1456h-553v-1456h-202v1456h-232v183h1422v-183z" />
    <glyph glyph-name="summation" unicode="&#x2211;" horiz-adv-x="1200" 
d="M1157 -199h-1110v129l557 688l-532 680v142h1050v-174h-768v-9l486 -610l-529 -651v-6h846v-189z" />
    <glyph glyph-name="minus" unicode="&#x2212;" horiz-adv-x="1228" 
d="M96 434v168h1037v-168h-1037z" />
    <glyph glyph-name="uni2215" unicode="&#x2215;" horiz-adv-x="342" 
d="M-340 -37l889 1587l133 -80l-889 -1587z" />
    <glyph glyph-name="uni2219" unicode="&#x2219;" horiz-adv-x="606" 
d="M158 573q0 59 43 103t102 43q59 0 103 -43q44 -42 43 -102q0 -60 -43 -103q-42 -43 -102 -43t-103 43t-43 102z" />
    <glyph glyph-name="radical" unicode="&#x221a;" horiz-adv-x="1247" 
d="M1260 1716l-484 -2017h-172l-336 934l-159 -62l-39 117l321 127l258 -733q23 -88 39 -156l4 -2q6 49 31 164l389 1628h148z" />
    <glyph glyph-name="infinity" unicode="&#x221e;" horiz-adv-x="1650" 
d="M1214 819h-2q-135 0 -315 -225q109 -127 177 -178t153 -51q84 1 139 69t55 162t-58 159q-59 64 -149 64zM446 365h3q57 0 94 21q37 22 55 34t46 39t39 38t42 45t37 40q-52 66 -72 90t-67 68q-85 78 -183 79q-98 0 -154 -67q-56 -68 -56 -163t60 -159q62 -64 156 -65z
M1544 598v-2q0 -156 -99 -253t-233 -97q-96 0 -185 58t-200 192q-102 -121 -191 -186q-89 -64 -214 -64t-221 98q-97 98 -97 246t98 246t244 98q109 0 199 -65t191 -183q131 153 205 196q95 50 186 52q141 -2 229 -96t88 -240z" />
    <glyph glyph-name="integral" unicode="&#x222b;" horiz-adv-x="790" 
d="M636 1622q-60 0 -95 -49q-68 -82 -68 -361q0 -162 15 -500t16 -515q0 -274 -86 -414q-72 -125 -236 -125q-94 0 -151 35l28 143q138 -57 195 21q70 86 70 340q0 180 -16 525q-15 345 -15 515t28 275t91 169q82 88 219 88q70 1 123 -28l-27 -139q-31 20 -91 20z" />
    <glyph glyph-name="approxequal" unicode="&#x2248;" horiz-adv-x="1202" 
d="M823 262q-77 0 -155 39q-31 14 -93 49q-121 72 -191 72t-116 -40q-45 -40 -98 -118l-80 72q51 94 131 150t157 56t129 -21q53 -22 86 -40q32 -17 47 -25q16 -8 40 -23q78 -48 143 -48t111 37q45 37 96 117l76 -72q-111 -205 -283 -205zM823 637q-61 0 -111 19t-155 80
t-164 61q-98 0 -165 -78q-24 -29 -58 -78l-80 70q51 94 131 150q165 116 379 -11q27 -16 31 -18q32 -16 53 -29t37 -19q17 -6 31 -12t24 -7t24 -3t27 -2q61 0 107 38t96 117l76 -71q-111 -207 -283 -207z" />
    <glyph glyph-name="notequal" unicode="&#x2260;" horiz-adv-x="1202" 
d="M1094 860v-125h-371l-137 -301h508v-123h-559l-113 -250l-98 45l94 205h-312v123h363l135 301h-498v125h549l111 244l98 -43l-92 -201h322z" />
    <glyph glyph-name="lessequal" unicode="&#x2264;" horiz-adv-x="1202" 
d="M1096 -10h-990v125h990v-125zM1090 199l-971 471v133l968 473v-146l-839 -389v-6l842 -391v-145z" />
    <glyph glyph-name="greaterequal" unicode="&#x2265;" horiz-adv-x="1202" 
d="M1092 -10h-983v125h983v-125zM121 1276l971 -473v-133l-971 -471v145l840 391v4l-840 391v146z" />
    <glyph glyph-name="lozenge" unicode="&#x25ca;" horiz-adv-x="1249" 
d="M952 715l-286 549q-27 66 -39 110h-6q-18 -61 -41 -110l-285 -541l287 -555q27 -55 39 -107h6q20 70 39 105zM1135 719l-433 -819h-163l-426 819l432 819h164z" />
    <glyph glyph-name="A.sc" unicode="&#xe000;" 
d="M774 549l-127 389h-4l-141 -389h272zM20 0v156h113l402 974h247l375 -974h113v-156h-479v156h112l-78 237h-379l-86 -237h113v-156h-453z" />
    <glyph glyph-name="AE.sc" unicode="&#xe001;" horiz-adv-x="1705" 
d="M782 967l-178 -334h268l2 334h-92zM20 0v156h134l534 966h864l9 -311h-152l-33 156h-278l-2 -334h299v-156h-301l-2 -321h319l21 180h180l-21 -336h-848v156h125l2 321h-348l-172 -321h133v-156h-463z" />
    <glyph glyph-name="Aacute.sc" unicode="&#xe002;" 
d="M584 1188l-129 98l413 344l123 -114zM774 549l-127 389h-4l-141 -389h272zM20 0v156h113l402 974h247l375 -974h113v-156h-479v156h112l-78 237h-379l-86 -237h113v-156h-453z" />
    <glyph glyph-name="Acircumflex.sc" unicode="&#xe003;" 
d="M225 1313l334 286h148l333 -286l-135 -111l-272 242l-275 -242zM774 549l-127 389h-4l-141 -389h272zM20 0v156h113l402 974h247l375 -974h113v-156h-479v156h112l-78 237h-379l-86 -237h113v-156h-453z" />
    <glyph glyph-name="Adieresis.sc" unicode="&#xe004;" 
d="M262 1401q0 59 43 102t103 43t102 -43q43 -43 43 -102t-43 -103t-102 -43q-59 0 -103 43q-43 44 -43 103zM713 1401q0 59 43 102t102 43q58 0 102 -43t44 -102t-43 -103t-103 -43q-60 -1 -102 43q-43 44 -43 103zM774 549l-127 389h-4l-141 -389h272zM20 0v156h113
l402 974h247l375 -974h113v-156h-479v156h112l-78 237h-379l-86 -237h113v-156h-453z" />
    <glyph glyph-name="Agrave.sc" unicode="&#xe005;" 
d="M707 1188l-408 328l123 114l414 -344zM774 549l-127 389h-4l-141 -389h272zM20 0v156h113l402 974h247l375 -974h113v-156h-479v156h112l-78 237h-379l-86 -237h113v-156h-453z" />
    <glyph glyph-name="Aring.sc" unicode="&#xe006;" 
d="M573 1366q0 -38 28 -64t63 -26q34 0 62 26t28 64t-28 65q-28 25 -62 25t-63 -26q-28 -26 -28 -64zM442 1366q0 86 64 147t158 61t157 -60q63 -62 63 -148t-62 -147q-64 -61 -158 -61t-158 60q-64 62 -64 148zM774 549l-127 389h-4l-141 -389h272zM20 0v156h113l402 974
h247l375 -974h113v-156h-479v156h112l-78 237h-379l-86 -237h113v-156h-453z" />
    <glyph glyph-name="Atilde.sc" unicode="&#xe007;" 
d="M507 1546q71 0 152 -55q93 -55 115 -55q48 0 67 19t42 48l22 27l121 -86l-22 -31q-54 -73 -100 -109t-110 -36t-165 55q-102 55 -129 55q-57 0 -103 -75l-14 -25l-143 74l16 30q18 35 44 67q26 33 81 65t126 32zM774 549l-127 389h-4l-141 -389h272zM20 0v156h113
l402 974h247l375 -974h113v-156h-479v156h112l-78 237h-379l-86 -237h113v-156h-453z" />
    <glyph glyph-name="B.sc" unicode="&#xe008;" horiz-adv-x="1062" 
d="M608 156q82 0 131 45t49 121q0 172 -182 172h-153l-2 -338h157zM100 0v156h127l6 811h-133v155h529q141 0 231 -72t90 -204q0 -190 -221 -248v-4q117 -8 197 -81t80 -191q0 -160 -104 -241t-265 -81h-537zM575 649q70 0 114 42t44 128q0 147 -178 148h-98l-2 -318h120z
" />
    <glyph glyph-name="C.sc" unicode="&#xe009;" horiz-adv-x="1138" 
d="M88 558q0 274 169 430t466 157q162 0 340 -66v-288h-168v141q-88 33 -184 33q-181 0 -281 -113q-100 -112 -100 -304t108 -291t293 -99q86 0 158 16l8 166h168l-8 -307q-139 -55 -367 -56q-298 0 -450 154q-152 153 -152 427z" />
    <glyph glyph-name="Ccedilla.sc" unicode="&#xe00a;" horiz-adv-x="1138" 
d="M651 -344q119 0 119 75t-137 74h-23v172q-260 25 -391 177t-131 387q0 291 169 447t466 157q162 0 340 -66v-288h-168v141q-88 33 -184 33q-181 0 -281 -113q-100 -112 -100 -304t108 -291t293 -99q86 0 158 16l8 166h168l-8 -307q-111 -45 -303 -56v-86h28
q180 -1 180 -173q0 -88 -79 -140q-80 -52 -199 -53q-119 0 -215 31l12 127q92 -27 170 -27z" />
    <glyph glyph-name="D.sc" unicode="&#xe00b;" 
d="M604 156q186 0 287 110q100 111 100 309q0 199 -92 295t-262 97h-180l-6 -811h153zM100 0v156h127l6 811h-133v155h576q272 0 415 -152q142 -153 142 -406q0 -252 -169 -408t-437 -156h-527z" />
    <glyph glyph-name="E.sc" unicode="&#xe00c;" horiz-adv-x="1062" 
d="M100 0v156h127l6 811h-133v155h842l10 -315h-166l-14 160h-317l-2 -318h321v-155h-323l-2 -338h319l20 180h181l-21 -336h-848z" />
    <glyph glyph-name="Eacute.sc" unicode="&#xe00d;" horiz-adv-x="1062" 
d="M471 1188l-129 98l414 344l123 -114zM100 0v156h127l6 811h-133v155h842l10 -315h-166l-14 160h-317l-2 -318h321v-155h-323l-2 -338h319l20 180h181l-21 -336h-848z" />
    <glyph glyph-name="Ecircumflex.sc" unicode="&#xe00e;" horiz-adv-x="1062" 
d="M125 1313l334 286h147l334 -286l-135 -111l-273 242l-274 -242zM100 0v156h127l6 811h-133v155h842l10 -315h-166l-14 160h-317l-2 -318h321v-155h-323l-2 -338h319l20 180h181l-21 -336h-848z" />
    <glyph glyph-name="Edieresis.sc" unicode="&#xe00f;" horiz-adv-x="1062" 
d="M162 1401q0 59 43 102t102 43t103 -43t43 -102q0 -59 -43 -103q-42 -44 -102 -43q-60 -1 -103 43t-43 103zM612 1401q0 59 43 102t103 43t102 -43q43 -43 43 -102t-43 -103t-102 -43q-59 0 -103 43q-43 44 -43 103zM100 0v156h127l6 811h-133v155h842l10 -315h-166
l-14 160h-317l-2 -318h321v-155h-323l-2 -338h319l20 180h181l-21 -336h-848z" />
    <glyph glyph-name="Egrave.sc" unicode="&#xe010;" horiz-adv-x="1062" 
d="M594 1188l-408 328l123 114l414 -344zM100 0v156h127l6 811h-133v155h842l10 -315h-166l-14 160h-317l-2 -318h321v-155h-323l-2 -338h319l20 180h181l-21 -336h-848z" />
    <glyph glyph-name="Eth.sc" unicode="&#xe011;" 
d="M715 649v-155h-262l-2 -338h153q186 0 287 110q100 111 100 309q0 199 -92 295t-262 97h-180l-2 -318h260zM100 0v156h127l2 338h-129v155h131l2 318h-133v155h576q272 0 415 -152q142 -153 142 -406q0 -252 -169 -408t-437 -156h-527z" />
    <glyph glyph-name="F.sc" unicode="&#xe012;" horiz-adv-x="985" 
d="M100 0v156h127l6 811h-133v155h844l10 -315h-166l-14 160h-317l-2 -318h321v-155h-323l-2 -338h133v-156h-484z" />
    <glyph glyph-name="G.sc" unicode="&#xe013;" horiz-adv-x="1251" 
d="M1200 549v-156h-121v-354q-168 -61 -389 -62q-298 0 -450 154q-152 153 -152 427t169 430t466 157q207 0 356 -64l4 -290h-168l-4 149q-72 25 -200 25q-181 0 -281 -113q-100 -112 -100 -308t108 -297t293 -102q72 0 150 19v229h-142v156h461z" />
    <glyph glyph-name="H.sc" unicode="&#xe014;" horiz-adv-x="1366" 
d="M90 0v156h127l6 811h-133v155h483v-155h-127l-2 -318h480l2 318h-133v155h483v-155h-127l-6 -811h133v-156h-483v156h127l2 338h-480l-2 -338h133v-156h-483z" />
    <glyph glyph-name="I.sc" unicode="&#xe015;" horiz-adv-x="684" 
d="M100 967v155h484v-155h-127l-6 -811h133v-156h-484v156h127l6 811h-133z" />
    <glyph glyph-name="Iacute.sc" unicode="&#xe016;" horiz-adv-x="684" 
d="M281 1188l-129 98l413 344l123 -114zM100 967v155h484v-155h-127l-6 -811h133v-156h-484v156h127l6 811h-133z" />
    <glyph glyph-name="Icircumflex.sc" unicode="&#xe017;" horiz-adv-x="684" 
d="M-66 1313l334 286h148l334 -286l-136 -111l-272 242l-274 -242zM100 967v155h484v-155h-127l-6 -811h133v-156h-484v156h127l6 811h-133z" />
    <glyph glyph-name="Idieresis.sc" unicode="&#xe018;" horiz-adv-x="684" 
d="M-29 1401q0 59 43 102q42 43 102 43t103 -43t43 -102t-43 -103t-102 -43q-59 0 -103 43q-43 44 -43 103zM422 1401q0 59 43 102t102 43t103 -43t43 -102q0 -59 -43 -103q-42 -44 -102 -43q-60 -1 -103 43t-43 103zM100 967v155h484v-155h-127l-6 -811h133v-156h-484v156
h127l6 811h-133z" />
    <glyph glyph-name="Igrave.sc" unicode="&#xe019;" horiz-adv-x="684" 
d="M403 1188l-407 328l123 114l413 -344zM100 967v155h484v-155h-127l-6 -811h133v-156h-484v156h127l6 811h-133z" />
    <glyph glyph-name="J.sc" unicode="&#xe01a;" horiz-adv-x="645" 
d="M584 1122v-155h-127l-6 -721q-1 -199 -99 -326t-282 -215l-88 150q139 72 191 169t54 267l6 676h-133v155h484z" />
    <glyph glyph-name="K.sc" unicode="&#xe01b;" horiz-adv-x="1251" 
d="M90 0v156h127l6 811h-133v155h483v-155h-127l-4 -375l410 375h-125v155h463v-155h-100l-424 -385l444 -426h100v-156h-479v156h100l-389 370l-2 -370h133v-156h-483z" />
    <glyph glyph-name="L.sc" unicode="&#xe01c;" horiz-adv-x="1024" 
d="M100 0v156h127l6 811h-133v155h484v-155h-127l-6 -811h319l21 180h180l-21 -336h-850z" />
    <glyph glyph-name="Lslash.sc" unicode="&#xe01d;" horiz-adv-x="1024" 
d="M100 0v156h127l2 239l-129 -67v155l131 68l2 416h-133v155h484v-155h-127l-2 -301l290 149v-156l-292 -149l-2 -354h319l21 180h180l-21 -336h-850z" />
    <glyph glyph-name="M.sc" unicode="&#xe01e;" horiz-adv-x="1705" 
d="M90 0v156h127l6 811h-133v155h445l333 -866l328 866h420v-155h-133l6 -811h127v-156h-453v156h133l-6 721h-4l-340 -877h-205l-333 877h-5l-6 -721h133v-156h-440z" />
    <glyph glyph-name="N.sc" unicode="&#xe01f;" horiz-adv-x="1366" 
d="M852 967v155h440v-155h-127l-6 -967h-168l-600 799h-4l-6 -643h133v-156h-440v156h127l6 811h-133v155h332l569 -760h4l6 605h-133z" />
    <glyph glyph-name="Ntilde.sc" unicode="&#xe020;" horiz-adv-x="1366" 
d="M557 1546q70 0 154 -55q93 -55 115 -55q57 0 96 53l34 41l121 -86l-22 -31q-53 -73 -99 -109t-110 -36t-166 55t-129 55q-57 0 -102 -75l-15 -25l-143 74l16 30q18 35 44 67q26 33 81 65t125 32zM852 967v155h440v-155h-127l-6 -967h-168l-600 799h-4l-6 -643h133v-156
h-440v156h127l6 811h-133v155h332l569 -760h4l6 605h-133z" />
    <glyph glyph-name="O.sc" unicode="&#xe021;" 
d="M317 552q-1 -182 91 -288t240 -106t237 114q88 114 88 297t-91 289t-240 106t-237 -115q-88 -116 -88 -297zM88 556q0 259 151 424t417 165t406 -159q140 -160 140 -418t-150 -425q-151 -166 -417 -166t-407 160q-140 160 -140 419z" />
    <glyph glyph-name="OE.sc" unicode="&#xe022;" horiz-adv-x="1669" 
d="M729 975q-199 -1 -305 -107t-106 -313t106 -307t287 -101q59 1 137 9l6 811q-70 8 -125 8zM1397 649v-155h-324l-2 -338h320l20 180h180l-20 -336h-752l-182 -8q-241 0 -395 144t-154 414t160 425q160 156 418 155l190 -8h709l10 -315h-166l-14 160h-318l-2 -318h322z
" />
    <glyph glyph-name="Oacute.sc" unicode="&#xe023;" 
d="M584 1188l-129 98l413 344l123 -114zM317 552q-1 -182 91 -288t240 -106t237 114q88 114 88 297t-91 289t-240 106t-237 -115q-88 -116 -88 -297zM88 556q0 259 151 424t417 165t406 -159q140 -160 140 -418t-150 -425q-151 -166 -417 -166t-407 160q-140 160 -140 419z
" />
    <glyph glyph-name="Ocircumflex.sc" unicode="&#xe024;" 
d="M238 1313l333 286h148l334 -286l-135 -111l-273 242l-274 -242zM317 552q-1 -182 91 -288t240 -106t237 114q88 114 88 297t-91 289t-240 106t-237 -115q-88 -116 -88 -297zM88 556q0 259 151 424t417 165t406 -159q140 -160 140 -418t-150 -425q-151 -166 -417 -166
t-407 160q-140 160 -140 419z" />
    <glyph glyph-name="Odieresis.sc" unicode="&#xe025;" 
d="M274 1401q0 59 43 102t103 43t102 -43q43 -43 43 -102t-43 -103t-102 -43q-59 0 -103 43q-43 44 -43 103zM725 1401q0 59 43 102t102 43q58 0 102 -43t44 -102t-43 -103t-103 -43q-60 -1 -102 43q-43 44 -43 103zM317 552q-1 -182 91 -288t240 -106t237 114
q88 114 88 297t-91 289t-240 106t-237 -115q-88 -116 -88 -297zM88 556q0 259 151 424t417 165t406 -159q140 -160 140 -418t-150 -425q-151 -166 -417 -166t-407 160q-140 160 -140 419z" />
    <glyph glyph-name="Ograve.sc" unicode="&#xe026;" 
d="M707 1188l-408 328l123 114l414 -344zM317 552q-1 -182 91 -288t240 -106t237 114q88 114 88 297t-91 289t-240 106t-237 -115q-88 -116 -88 -297zM88 556q0 259 151 424t417 165t406 -159q140 -160 140 -418t-150 -425q-151 -166 -417 -166t-407 160q-140 160 -140 419z
" />
    <glyph glyph-name="Oslash.sc" unicode="&#xe027;" 
d="M88 530q0 284 151 450q151 165 406 165q152 0 262 -53l129 202l105 -65l-127 -199q188 -150 188 -435t-150 -452q-151 -166 -407 -166q-150 0 -264 52l-127 -201l-104 66l126 200q-188 152 -188 436zM645 158q152 0 240 114t88 290t-80 278l-404 -641q70 -41 156 -41z
M645 965q-151 0 -239 -116t-88 -289t77 -277l406 641q-68 41 -156 41z" />
    <glyph glyph-name="Otilde.sc" unicode="&#xe028;" 
d="M519 1546q71 0 153 -55q94 -55 116 -55q60 0 107 67l23 27l120 -86l-22 -31q-54 -73 -100 -109t-109 -36t-165 55t-130 55q-57 0 -102 -75l-15 -25l-143 74l16 30q18 35 44 67q26 33 81 65t126 32zM317 552q-1 -182 91 -288t240 -106t237 114q88 114 88 297t-91 289
t-240 106t-237 -115q-88 -116 -88 -297zM88 556q0 259 151 424t417 165t406 -159q140 -160 140 -418t-150 -425q-151 -166 -417 -166t-407 160q-140 160 -140 419z" />
    <glyph glyph-name="P.sc" unicode="&#xe029;" horiz-adv-x="1024" 
d="M573 604q84 0 135 48q50 48 50 138t-45 133q-45 44 -121 44h-135l-2 -363h118zM100 0v156h127l6 811h-133v155h502q188 0 280 -88t93 -236q0 -148 -98 -248t-271 -101h-153l-2 -293h133v-156h-484z" />
    <glyph glyph-name="Q.sc" unicode="&#xe02a;" 
d="M1249 -295q-73 0 -157 30t-226 116t-187 106q-46 20 -98 20q-129 0 -250 75q-243 148 -243 495q0 268 151 433t417 165t406 -159t140 -397q0 -239 -94 -379t-254 -190v-4q133 -10 255 -70t166 -60t97 12v-177q-49 -16 -123 -16zM317 552q-1 -182 91 -288t240 -106
t237 114q88 114 88 297t-91 289t-240 106t-237 -115q-88 -116 -88 -297z" />
    <glyph glyph-name="R.sc" unicode="&#xe02b;" horiz-adv-x="1138" 
d="M90 0v156h127l6 811h-133v155h518q180 0 262 -85t82 -210q0 -229 -264 -297v-4q78 -20 118 -60t104 -150t90 -135q26 -26 57 -25q4 0 47 6v-162h-115q-113 0 -155 38t-128 203q-84 165 -120 201t-99 35h-45l-2 -321h133v-156h-483zM532 633q92 0 148 46q55 46 55 124
q0 164 -153 164h-136l-2 -334h88z" />
    <glyph glyph-name="S.sc" unicode="&#xe02c;" horiz-adv-x="1024" 
d="M90 332h176l8 -152q82 -35 192 -35t174 40q65 40 65 117q1 77 -63 115t-154 56t-181 44q-90 25 -153 93t-64 181q0 153 117 253t340 101q70 1 169 -19t156 -47v-264h-176l-8 135q-68 27 -161 27t-150 -38t-57 -107q0 -70 62 -106q64 -36 154 -54t181 -45q90 -27 153 -99
q64 -72 64 -195t-96 -232q-113 -124 -421 -124q-169 0 -327 66v289z" />
    <glyph glyph-name="Scaron.sc" unicode="&#xe02d;" horiz-adv-x="1024" 
d="M438 1233l-334 287l136 110l272 -241l274 241l134 -110l-334 -287h-148zM90 332h176l8 -152q82 -35 192 -35t174 40q65 40 65 117q1 77 -63 115t-154 56t-181 44q-90 25 -153 93t-64 181q0 153 117 253t340 101q70 1 169 -19t156 -47v-264h-176l-8 135q-68 27 -161 27
t-150 -38t-57 -107q0 -70 62 -106q64 -36 154 -54t181 -45q90 -27 153 -99q64 -72 64 -195t-96 -232q-113 -124 -421 -124q-169 0 -327 66v289z" />
    <glyph glyph-name="T.sc" unicode="&#xe02e;" horiz-adv-x="1099" 
d="M305 0v156h127l6 811h-225l-8 -160h-170l12 315h1006l12 -315h-170l-8 160h-225l-7 -811h133v-156h-483z" />
    <glyph glyph-name="Thorn.sc" unicode="&#xe02f;" horiz-adv-x="1024" 
d="M100 0v156h127l6 811h-133v155h484v-155h-127v-62h145q188 0 280 -88t93 -236q0 -149 -98 -249t-271 -101h-155v-75h133v-156h-484zM573 387q84 0 135 48q50 48 50 137q0 90 -45 134t-121 44h-137l-2 -363h120z" />
    <glyph glyph-name="U.sc" unicode="&#xe030;" horiz-adv-x="1327" 
d="M678 158q248 0 252 262l6 547h-141v155h462v-155h-116l-6 -586q-2 -201 -127 -302t-347 -101t-339 94q-117 96 -117 317l6 578h-141v155h481v-155h-117l-6 -541q0 -148 66 -208t184 -60z" />
    <glyph glyph-name="Uacute.sc" unicode="&#xe031;" horiz-adv-x="1327" 
d="M602 1188l-129 98l414 344l123 -114zM678 158q248 0 252 262l6 547h-141v155h462v-155h-116l-6 -586q-2 -201 -127 -302t-347 -101t-339 94q-117 96 -117 317l6 578h-141v155h481v-155h-117l-6 -541q0 -148 66 -208t184 -60z" />
    <glyph glyph-name="Ucircumflex.sc" unicode="&#xe032;" horiz-adv-x="1327" 
d="M256 1313l334 286h147l334 -286l-135 -111l-272 242l-275 -242zM678 158q248 0 252 262l6 547h-141v155h462v-155h-116l-6 -586q-2 -201 -127 -302t-347 -101t-339 94q-117 96 -117 317l6 578h-141v155h481v-155h-117l-6 -541q0 -148 66 -208t184 -60z" />
    <glyph glyph-name="Udieresis.sc" unicode="&#xe033;" horiz-adv-x="1327" 
d="M272 1401q0 59 43 102t103 43t102 -43q43 -43 43 -102t-43 -103t-102 -43q-59 0 -103 43q-43 44 -43 103zM723 1401q0 59 43 102t102 43q58 0 102 -43t44 -102t-43 -103t-103 -43q-60 -1 -102 43q-43 44 -43 103zM678 158q248 0 252 262l6 547h-141v155h462v-155h-116
l-6 -586q-2 -201 -127 -302t-347 -101t-339 94q-117 96 -117 317l6 578h-141v155h481v-155h-117l-6 -541q0 -148 66 -208t184 -60z" />
    <glyph glyph-name="Ugrave.sc" unicode="&#xe034;" horiz-adv-x="1327" 
d="M725 1188l-408 328l123 114l414 -344zM678 158q248 0 252 262l6 547h-141v155h462v-155h-116l-6 -586q-2 -201 -127 -302t-347 -101t-339 94q-117 96 -117 317l6 578h-141v155h481v-155h-117l-6 -541q0 -148 66 -208t184 -60z" />
    <glyph glyph-name="V.sc" unicode="&#xe035;" 
d="M1270 1122v-155h-107l-399 -967h-229l-402 967h-113v155h480v-155h-113l277 -762h4l274 762h-135v155h463z" />
    <glyph glyph-name="W.sc" unicode="&#xe036;" horiz-adv-x="1933" 
d="M20 967v155h480v-155h-113l252 -774h4l242 612l-56 162h-112v155h479v-155h-133l248 -774h4l268 774h-133v155h463v-155h-107l-383 -967h-241l-211 569l-228 -569h-229l-381 967h-113z" />
    <glyph glyph-name="X.sc" unicode="&#xe037;" horiz-adv-x="1251" 
d="M1171 1122v-155h-106l-320 -375l349 -436h102v-156h-504v156h115l-207 264l-223 -264h141v-156h-463v156h105l340 393l-326 418h-102v155h489v-155h-115l199 -250l215 250h-141v155h452z" />
    <glyph glyph-name="Y.sc" unicode="&#xe038;" horiz-adv-x="1251" 
d="M1219 1122v-155h-107l-375 -502l-4 -309h133v-156h-483v156h127l4 309l-375 502h-106v155h489v-155h-106l229 -338l238 338h-127v155h463z" />
    <glyph glyph-name="Yacute.sc" unicode="&#xe039;" horiz-adv-x="1251" 
d="M565 1188l-129 98l414 344l123 -114zM1219 1122v-155h-107l-375 -502l-4 -309h133v-156h-483v156h127l4 309l-375 502h-106v155h489v-155h-106l229 -338l238 338h-127v155h463z" />
    <glyph glyph-name="Ydieresis.sc" unicode="&#xe03a;" horiz-adv-x="1251" 
d="M256 1401q0 59 43 102t102 43t103 -43t43 -102q0 -59 -43 -103q-42 -44 -102 -43q-60 -1 -103 43t-43 103zM707 1401q0 59 43 102t102 43t102 -43t43 -102t-43 -103t-102 -43q-59 -1 -102 43t-43 103zM1219 1122v-155h-107l-375 -502l-4 -309h133v-156h-483v156h127
l4 309l-375 502h-106v155h489v-155h-106l229 -338l238 338h-127v155h463z" />
    <glyph glyph-name="Z.sc" unicode="&#xe03b;" horiz-adv-x="1099" 
d="M70 0v156l651 811h-434l-8 -160h-183l13 315h901v-135l-660 -831h479l21 180h180l-20 -336h-940z" />
    <glyph glyph-name="Zcaron.sc" unicode="&#xe03c;" horiz-adv-x="1099" 
d="M477 1233l-334 287l136 110l272 -241l274 241l133 -110l-333 -287h-148zM70 0v156l651 811h-434l-8 -160h-183l13 315h901v-135l-660 -831h479l21 180h180l-20 -336h-940z" />
    <glyph glyph-name="f_i.sc" unicode="&#xe03d;" horiz-adv-x="1669" 
d="M1085 967v155h484v-155h-127l-6 -811h133v-156h-484v156h127l7 811h-134zM100 0v156h127l6 811h-133v155h844l10 -315h-166l-14 160h-317l-2 -318h321v-155h-323l-2 -338h133v-156h-484z" />
    <glyph glyph-name="f_l.sc" unicode="&#xe03e;" horiz-adv-x="2009" 
d="M1085 0v156h127l7 811h-134v155h484v-155h-127l-6 -811h319l21 180h180l-21 -336h-850zM100 0v156h127l6 811h-133v155h844l10 -315h-166l-14 160h-317l-2 -318h321v-155h-323l-2 -338h133v-156h-484z" />
    <glyph glyph-name="germandbls.sc" unicode="&#xe03f;" horiz-adv-x="2048" 
d="M1114 332h176l8 -152q82 -35 192 -35t174 40q65 40 65 117q1 77 -63 115t-154 56t-181 44q-90 25 -153 93t-64 181q0 153 117 253t340 101q70 1 169 -19t156 -47v-264h-176l-8 135q-68 27 -161 27t-150 -38t-57 -107q0 -70 62 -106q64 -36 154 -54t181 -45
q90 -27 153 -99q64 -72 64 -195t-96 -232q-113 -124 -421 -124q-169 0 -327 66v289zM90 332h176l8 -152q82 -35 192 -35t174 40q65 40 65 117q1 77 -63 115t-154 56t-181 44q-90 25 -153 93t-64 181q0 153 117 253t340 101q70 1 169 -19t156 -47v-264h-176l-8 135
q-68 27 -161 27t-150 -38t-57 -107q0 -70 62 -106q64 -36 154 -54t181 -45q90 -27 153 -99q64 -72 64 -195t-96 -232q-113 -124 -421 -124q-169 0 -327 66v289z" />
    <glyph glyph-name="zero.taboldstyle" unicode="&#xf643;" horiz-adv-x="1212" 
d="M307 536q0 -184 78 -284t210 -100t221 96t89 280t-78 285q-78 100 -210 100t-221 -96q-89 -97 -89 -281zM78 518q0 242 139 409t396 167t389 -153t132 -395t-138 -408q-140 -167 -397 -167q-257 1 -389 153t-132 394z" />
    <glyph glyph-name="one.taboldstyle" unicode="&#xf644;" horiz-adv-x="1212" 
d="M283 0v156h204l7 753h-211v156h645v-156h-205l-6 -753h211v-156h-645z" />
    <glyph glyph-name="two.taboldstyle" unicode="&#xf645;" horiz-adv-x="1212" 
d="M150 0v150q360 233 491 360t131 233q0 82 -49 126t-141 44t-148 -52t-67 -138h-217q14 172 138 271q124 100 318 100t295 -100q100 -100 100 -236q0 -168 -135 -300t-424 -286v-4h621v-168h-913z" />
    <glyph glyph-name="three.taboldstyle" unicode="&#xf646;" horiz-adv-x="1212" 
d="M350 252v168h68q174 0 275 91t102 214q1 86 -53 137t-144 51q-190 0 -236 -190h-221q19 184 157 277q138 94 332 94t300 -106t106 -248t-87 -237t-236 -136v-5q162 -8 265 -105t103 -247t-116 -275q-59 -65 -170 -105t-240 -40t-207 14t-217 62v201q195 -84 355 -84
q160 1 257 65t97 169t-102 170t-316 65h-72z" />
    <glyph glyph-name="four.taboldstyle" unicode="&#xf647;" horiz-adv-x="1212" 
d="M1196 236v-168h-281l-2 -441h-223l2 441h-637v161l607 836h258l-5 -829h281zM694 236l2 606h-4l-426 -606h428z" />
    <glyph glyph-name="five.taboldstyle" unicode="&#xf648;" horiz-adv-x="1212" 
d="M474 -217q157 0 261 77t105 206q0 165 -181 230q-165 60 -444 60l16 709h803v-180h-577l-8 -348q325 0 485 -128t160 -329t-159 -345t-454 -145q-168 1 -311 54v188q147 -49 304 -49z" />
    <glyph glyph-name="six.taboldstyle" unicode="&#xf649;" horiz-adv-x="1212" 
d="M896 1290q-100 0 -200 -35q-178 -63 -259 -202q-80 -140 -91 -299h4q45 74 136 114t194 39q190 0 309 -125q119 -124 119 -330t-132 -343t-372 -137t-370 178t-130 466q0 406 208 624t569 218q118 0 192 -8l-14 -172q-63 12 -163 12zM600 715q-140 0 -254 -140
q0 -424 279 -423q119 0 187 80t67 202q0 123 -70 202q-69 79 -209 79z" />
    <glyph glyph-name="seven.taboldstyle" unicode="&#xf64a;" horiz-adv-x="1212" 
d="M1071 1065v-156q-47 -88 -135 -268q-315 -644 -503 -866q-99 -119 -202 -197l-125 133q140 121 262 311t261 468t200 382h-682v193h924z" />
    <glyph glyph-name="eight.taboldstyle" unicode="&#xf64b;" horiz-adv-x="1212" 
d="M324 360q0 -89 74 -149q75 -59 212 -59t208 61t71 147q1 86 -59 148q-60 61 -232 135q-158 -80 -216 -137t-58 -146zM362 1090q0 -70 52 -121t211 -129q115 61 175 119q60 57 60 145t-68 137q-69 49 -180 49q-110 0 -180 -49t-70 -151zM82 340q0 254 336 395
q-145 66 -215 152t-70 220t120 243q121 108 363 108t358 -100t116 -230t-77 -219q-77 -88 -216 -157q334 -133 333 -379q0 -197 -143 -299t-389 -102t-380 92q-136 94 -136 276z" />
    <glyph glyph-name="nine.taboldstyle" unicode="&#xf64c;" horiz-adv-x="1212" 
d="M318 -225q100 0 199 35t162 88q119 101 165 270q18 70 22 143h-4q-45 -73 -136 -113t-194 -40q-190 0 -309 125t-119 331t132 342q132 138 372 138t370 -178t130 -467q0 -406 -208 -624t-568 -218q-119 0 -193 8l15 172q64 -12 164 -12zM588 913q-119 1 -187 -79
q-67 -80 -67 -203t70 -202t208 -79q140 0 254 139q0 424 -278 424z" />
    <glyph glyph-name="dollar.taboldstyle" unicode="&#xf653;" horiz-adv-x="1212" 
d="M63 383h205v-203q115 -31 252 -30l4 483l-147 47q-317 86 -318 350q1 202 139 314t330 120l4 265h156l-4 -265q176 -4 379 -67v-318h-193v172q-100 35 -186 33l-4 -469l123 -35q180 -49 265 -131t85 -261t-129 -290t-350 -129l-4 -250h-156l4 250q-303 0 -455 62v352z
M924 379q0 86 -47 129q-48 42 -138 67l-57 17l-8 -442q250 29 250 229zM457 877l67 -19l4 426q-111 -14 -173 -74t-66 -145q0 -143 168 -188z" />
    <glyph glyph-name="cent.taboldstyle" unicode="&#xf654;" horiz-adv-x="1212" 
d="M1079 733h-180v158q-84 18 -151 18l-5 -741q176 4 310 61l-13 -198q-158 -49 -297 -56l-4 -249h-155l4 249q-240 29 -354 187t-114 374t125 371q124 154 347 174l4 213h156l-4 -204q96 0 194 -18t137 -38v-301zM588 168l4 733q-117 -13 -179 -115t-63 -237
q0 -313 238 -381z" />
    <glyph glyph-name="breve.sc" unicode="&#xf6f4;" horiz-adv-x="569" 
d="M288 1411q159 0 201 162l13 47l157 -39l-14 -49q-90 -276 -364 -276t-357 276l-14 49l164 39l12 -47q43 -162 202 -162z" />
    <glyph glyph-name="caron.sc" unicode="&#xf6f5;" horiz-adv-x="569" 
d="M211 1233l-334 287l135 110l273 -241l274 241l133 -110l-334 -287h-147z" />
    <glyph glyph-name="circumflex.sc" unicode="&#xf6f6;" horiz-adv-x="569" 
d="M-123 1313l334 286h147l334 -286l-135 -111l-272 242l-275 -242z" />
    <glyph glyph-name="dotaccent.sc" unicode="&#xf6f7;" horiz-adv-x="569" 
d="M139 1401q0 59 43 102q42 43 102 43t103 -43t43 -102t-43 -103t-102 -43q-59 0 -103 43q-43 44 -43 103z" />
    <glyph glyph-name="hungarumlaut.sc" unicode="&#xf6f8;" horiz-adv-x="569" 
d="M449 1188l-130 98l414 344l123 -114zM-2 1188l-129 98l414 344l123 -114z" />
    <glyph glyph-name="lslash.sc" unicode="&#xf6f9;" horiz-adv-x="1024" 
d="M100 0v156h127l2 239l-129 -67v155l131 68l2 416h-133v155h484v-155h-127l-2 -301l290 149v-156l-292 -149l-2 -354h319l21 180h180l-21 -336h-850z" />
    <glyph glyph-name="oe.sc" unicode="&#xf6fa;" horiz-adv-x="1669" 
d="M729 975q-199 -1 -305 -107t-106 -313t106 -307t287 -101q59 1 137 9l6 811q-70 8 -125 8zM1397 649v-155h-324l-2 -338h320l20 180h180l-20 -336h-752l-182 -8q-241 0 -395 144t-154 414t160 425q160 156 418 155l190 -8h709l10 -315h-166l-14 160h-318l-2 -318h322z
" />
    <glyph glyph-name="ogonek.sc" unicode="&#xf6fb;" horiz-adv-x="569" 
d="M344 -248q0 -96 117 -96q57 0 114 20l25 -120q-92 -31 -194 -31t-178 51q-77 51 -76 152q0 132 141 239q21 17 80 60h131q-82 -89 -121 -149t-39 -126z" />
    <glyph glyph-name="ring.sc" unicode="&#xf6fc;" horiz-adv-x="569" 
d="M195 1366q-1 -38 27 -64t63 -26t63 26t27 64q0 38 -28 65q-29 25 -63 25t-62 -25q-27 -26 -27 -65zM63 1366q-1 86 63 147t158 61t158 -60q64 -62 64 -148t-64 -147t-157 -61q-94 0 -158 60q-64 62 -64 148z" />
    <glyph glyph-name="scaron.sc" unicode="&#xf6fd;" horiz-adv-x="1024" 
d="M438 1233l-334 287l136 110l272 -241l274 241l134 -110l-334 -287h-148zM90 332h176l8 -152q82 -35 192 -35t174 40q65 40 65 117q1 77 -63 115t-154 56t-181 44q-90 25 -153 93t-64 181q0 153 117 253t340 101q70 1 169 -19t156 -47v-264h-176l-8 135q-68 27 -161 27
t-150 -38t-57 -107q0 -70 62 -106q64 -36 154 -54t181 -45q90 -27 153 -99q64 -72 64 -195t-96 -232q-113 -124 -421 -124q-169 0 -327 66v289z" />
    <glyph glyph-name="tilde.sc" unicode="&#xf6fe;" horiz-adv-x="569" 
d="M159 1546q71 0 152 -55q93 -55 115 -55q48 0 68 20q19 20 41 47l22 27l121 -86l-23 -31q-53 -73 -99 -109t-110 -36t-165 55q-102 55 -129 55q-57 0 -103 -75l-14 -25l-144 74l17 30q18 35 44 67q26 33 81 65t126 32z" />
    <glyph glyph-name="zcaron.sc" unicode="&#xf6ff;" horiz-adv-x="1099" 
d="M477 1233l-334 287l136 110l272 -241l274 241l133 -110l-333 -287h-148zM70 0v156l651 811h-434l-8 -160h-183l13 315h901v-135l-660 -831h479l21 180h180l-20 -336h-940z" />
    <glyph glyph-name="exclam.sc" unicode="&#xf721;" horiz-adv-x="606" 
d="M145 127q0 66 46 112t112 46t112 -46t46 -112t-46 -112t-112 -46t-112 46t-46 112zM412 473h-217l-25 1102h266z" />
    <glyph glyph-name="ampersand.sc" unicode="&#xf726;" horiz-adv-x="1251" 
d="M348 891q0 -66 111 -168q141 100 141 180q0 37 -33 68t-88 31t-93 -34q-38 -32 -38 -77zM289 332q0 -90 59 -144t164 -55q105 0 193 82q-229 219 -297 293q-119 -86 -119 -176zM1180 694v-155h-107q-4 -86 -31 -155t-92 -155q55 -74 146 -73h61v-156h-106q-131 0 -220 96
q-141 -119 -339 -119q-198 -1 -309 89q-112 90 -111 229q0 92 47 164t182 168q-133 121 -133 243t89 199q89 76 222 76q133 1 211 -63t78 -173q0 -160 -207 -293q40 -49 149 -155q109 -105 119 -115q63 74 64 193h-96v155h383z" />
    <glyph glyph-name="question.sc" unicode="&#xf73f;" horiz-adv-x="985" 
d="M166 127q0 66 46 112t112 46t112 -46t45 -112q0 -66 -46 -112q-45 -46 -111 -46t-112 46t-46 112zM164 614q0 68 20 111q42 91 236 199q117 66 165 130t48 158q0 92 -79 150t-203 57q-124 0 -216 -43l-12 180q129 43 287 43q229 0 353 -103t124 -271q0 -219 -217 -361
l-189 -121q-51 -33 -69 -59t-18 -72q0 -47 52 -100l-202 -76l-17 21q-63 89 -63 157z" />
    <glyph glyph-name="grave.sc" unicode="&#xf760;" horiz-adv-x="569" 
d="M346 1188l-407 328l122 114l414 -344z" />
    <glyph glyph-name="a.sc" unicode="&#xf761;" 
d="M774 549l-127 389h-4l-141 -389h272zM20 0v156h113l402 974h247l375 -974h113v-156h-479v156h112l-78 237h-379l-86 -237h113v-156h-453z" />
    <glyph glyph-name="b.sc" unicode="&#xf762;" horiz-adv-x="1062" 
d="M608 156q82 0 131 45t49 121q0 172 -182 172h-153l-2 -338h157zM100 0v156h127l6 811h-133v155h529q141 0 231 -72t90 -204q0 -190 -221 -248v-4q117 -8 197 -81t80 -191q0 -160 -104 -241t-265 -81h-537zM575 649q70 0 114 42t44 128q0 147 -178 148h-98l-2 -318h120z
" />
    <glyph glyph-name="c.sc" unicode="&#xf763;" horiz-adv-x="1138" 
d="M88 558q0 274 169 430t466 157q162 0 340 -66v-288h-168v141q-88 33 -184 33q-181 0 -281 -113q-100 -112 -100 -304t108 -291t293 -99q86 0 158 16l8 166h168l-8 -307q-139 -55 -367 -56q-298 0 -450 154q-152 153 -152 427z" />
    <glyph glyph-name="d.sc" unicode="&#xf764;" 
d="M604 156q186 0 287 110q100 111 100 309q0 199 -92 295t-262 97h-180l-6 -811h153zM100 0v156h127l6 811h-133v155h576q272 0 415 -152q142 -153 142 -406q0 -252 -169 -408t-437 -156h-527z" />
    <glyph glyph-name="e.sc" unicode="&#xf765;" horiz-adv-x="1062" 
d="M100 0v156h127l6 811h-133v155h842l10 -315h-166l-14 160h-317l-2 -318h321v-155h-323l-2 -338h319l20 180h181l-21 -336h-848z" />
    <glyph glyph-name="f.sc" unicode="&#xf766;" horiz-adv-x="985" 
d="M100 0v156h127l6 811h-133v155h844l10 -315h-166l-14 160h-317l-2 -318h321v-155h-323l-2 -338h133v-156h-484z" />
    <glyph glyph-name="g.sc" unicode="&#xf767;" horiz-adv-x="1251" 
d="M1200 549v-156h-121v-354q-168 -61 -389 -62q-298 0 -450 154q-152 153 -152 427t169 430t466 157q207 0 356 -64l4 -290h-168l-4 149q-72 25 -200 25q-181 0 -281 -113q-100 -112 -100 -308t108 -297t293 -102q72 0 150 19v229h-142v156h461z" />
    <glyph glyph-name="h.sc" unicode="&#xf768;" horiz-adv-x="1366" 
d="M90 0v156h127l6 811h-133v155h483v-155h-127l-2 -318h480l2 318h-133v155h483v-155h-127l-6 -811h133v-156h-483v156h127l2 338h-480l-2 -338h133v-156h-483z" />
    <glyph glyph-name="i.sc" unicode="&#xf769;" horiz-adv-x="684" 
d="M100 967v155h484v-155h-127l-6 -811h133v-156h-484v156h127l6 811h-133z" />
    <glyph glyph-name="j.sc" unicode="&#xf76a;" horiz-adv-x="645" 
d="M584 1122v-155h-127l-6 -721q-1 -199 -99 -326t-282 -215l-88 150q139 72 191 169t54 267l6 676h-133v155h484z" />
    <glyph glyph-name="k.sc" unicode="&#xf76b;" horiz-adv-x="1251" 
d="M90 0v156h127l6 811h-133v155h483v-155h-127l-4 -375l410 375h-125v155h463v-155h-100l-424 -385l444 -426h100v-156h-479v156h100l-389 370l-2 -370h133v-156h-483z" />
    <glyph glyph-name="l.sc" unicode="&#xf76c;" horiz-adv-x="1024" 
d="M100 0v156h127l6 811h-133v155h484v-155h-127l-6 -811h319l21 180h180l-21 -336h-850z" />
    <glyph glyph-name="m.sc" unicode="&#xf76d;" horiz-adv-x="1705" 
d="M90 0v156h127l6 811h-133v155h445l333 -866l328 866h420v-155h-133l6 -811h127v-156h-453v156h133l-6 721h-4l-340 -877h-205l-333 877h-5l-6 -721h133v-156h-440z" />
    <glyph glyph-name="n.sc" unicode="&#xf76e;" horiz-adv-x="1366" 
d="M852 967v155h440v-155h-127l-6 -967h-168l-600 799h-4l-6 -643h133v-156h-440v156h127l6 811h-133v155h332l569 -760h4l6 605h-133z" />
    <glyph glyph-name="o.sc" unicode="&#xf76f;" 
d="M317 552q-1 -182 91 -288t240 -106t237 114q88 114 88 297t-91 289t-240 106t-237 -115q-88 -116 -88 -297zM88 556q0 259 151 424t417 165t406 -159q140 -160 140 -418t-150 -425q-151 -166 -417 -166t-407 160q-140 160 -140 419z" />
    <glyph glyph-name="p.sc" unicode="&#xf770;" horiz-adv-x="1024" 
d="M573 604q84 0 135 48q50 48 50 138t-45 133q-45 44 -121 44h-135l-2 -363h118zM100 0v156h127l6 811h-133v155h502q188 0 280 -88t93 -236q0 -148 -98 -248t-271 -101h-153l-2 -293h133v-156h-484z" />
    <glyph glyph-name="q.sc" unicode="&#xf771;" 
d="M1249 -295q-73 0 -157 30t-226 116t-187 106q-46 20 -98 20q-129 0 -250 75q-243 148 -243 495q0 268 151 433t417 165t406 -159t140 -397q0 -239 -94 -379t-254 -190v-4q133 -10 255 -70t166 -60t97 12v-177q-49 -16 -123 -16zM317 552q-1 -182 91 -288t240 -106
t237 114q88 114 88 297t-91 289t-240 106t-237 -115q-88 -116 -88 -297z" />
    <glyph glyph-name="r.sc" unicode="&#xf772;" horiz-adv-x="1138" 
d="M90 0v156h127l6 811h-133v155h518q180 0 262 -85t82 -210q0 -229 -264 -297v-4q78 -20 118 -60t104 -150t90 -135q26 -26 57 -25q4 0 47 6v-162h-115q-113 0 -155 38t-128 203q-84 165 -120 201t-99 35h-45l-2 -321h133v-156h-483zM532 633q92 0 148 46q55 46 55 124
q0 164 -153 164h-136l-2 -334h88z" />
    <glyph glyph-name="s.sc" unicode="&#xf773;" horiz-adv-x="1024" 
d="M90 332h176l8 -152q82 -35 192 -35t174 40q65 40 65 117q1 77 -63 115t-154 56t-181 44q-90 25 -153 93t-64 181q0 153 117 253t340 101q70 1 169 -19t156 -47v-264h-176l-8 135q-68 27 -161 27t-150 -38t-57 -107q0 -70 62 -106q64 -36 154 -54t181 -45q90 -27 153 -99
q64 -72 64 -195t-96 -232q-113 -124 -421 -124q-169 0 -327 66v289z" />
    <glyph glyph-name="t.sc" unicode="&#xf774;" horiz-adv-x="1099" 
d="M305 0v156h127l6 811h-225l-8 -160h-170l12 315h1006l12 -315h-170l-8 160h-225l-7 -811h133v-156h-483z" />
    <glyph glyph-name="u.sc" unicode="&#xf775;" horiz-adv-x="1327" 
d="M678 158q248 0 252 262l6 547h-141v155h462v-155h-116l-6 -586q-2 -201 -127 -302t-347 -101t-339 94q-117 96 -117 317l6 578h-141v155h481v-155h-117l-6 -541q0 -148 66 -208t184 -60z" />
    <glyph glyph-name="v.sc" unicode="&#xf776;" 
d="M1270 1122v-155h-107l-399 -967h-229l-402 967h-113v155h480v-155h-113l277 -762h4l274 762h-135v155h463z" />
    <glyph glyph-name="w.sc" unicode="&#xf777;" horiz-adv-x="1933" 
d="M20 967v155h480v-155h-113l252 -774h4l242 612l-56 162h-112v155h479v-155h-133l248 -774h4l268 774h-133v155h463v-155h-107l-383 -967h-241l-211 569l-228 -569h-229l-381 967h-113z" />
    <glyph glyph-name="x.sc" unicode="&#xf778;" horiz-adv-x="1251" 
d="M1171 1122v-155h-106l-320 -375l349 -436h102v-156h-504v156h115l-207 264l-223 -264h141v-156h-463v156h105l340 393l-326 418h-102v155h489v-155h-115l199 -250l215 250h-141v155h452z" />
    <glyph glyph-name="y.sc" unicode="&#xf779;" horiz-adv-x="1251" 
d="M1219 1122v-155h-107l-375 -502l-4 -309h133v-156h-483v156h127l4 309l-375 502h-106v155h489v-155h-106l229 -338l238 338h-127v155h463z" />
    <glyph glyph-name="z.sc" unicode="&#xf77a;" horiz-adv-x="1099" 
d="M70 0v156l651 811h-434l-8 -160h-183l13 315h901v-135l-660 -831h479l21 180h180l-20 -336h-940z" />
    <glyph glyph-name="exclamdown.sc" unicode="&#xf7a1;" horiz-adv-x="606" 
d="M461 932q0 -66 -46 -112t-112 -46t-112 46t-46 112t46 112t112 46t112 -46t46 -112zM170 -514l25 1102h217l24 -1102h-266z" />
    <glyph glyph-name="dieresis.sc" unicode="&#xf7a8;" horiz-adv-x="569" 
d="M-86 1401q0 59 43 102t102 43t103 -43t43 -102q0 -59 -43 -103q-42 -44 -102 -43q-60 -1 -103 43t-43 103zM365 1401q0 59 43 102t102 43t102 -43t43 -102t-43 -103t-102 -43q-59 -1 -102 43t-43 103z" />
    <glyph glyph-name="macron.sc" unicode="&#xf7af;" horiz-adv-x="569" 
d="M-20 1327v168h610v-168h-610z" />
    <glyph glyph-name="acute.sc" unicode="&#xf7b4;" horiz-adv-x="569" 
d="M223 1188l-129 98l414 344l123 -114z" />
    <glyph glyph-name="cedilla.sc" unicode="&#xf7b8;" horiz-adv-x="569" 
d="M389 -109q180 -1 180 -173q0 -88 -80 -140q-81 -52 -199 -53q-118 0 -214 31l12 127q92 -27 170 -27q119 0 119 75t-137 74h-23v222h143v-136h29z" />
    <glyph glyph-name="questiondown.sc" unicode="&#xf7bf;" horiz-adv-x="985" 
d="M819 932q0 -66 -46 -112q-45 -46 -111 -46t-112 46t-46 112t46 112t112 46t112 -46t45 -112zM821 448q0 -68 -20 -112q-42 -91 -236 -199q-117 -67 -165 -131t-48 -156t79 -150t203 -58t216 43l12 -181q-129 -43 -287 -43q-229 -1 -353 103t-124 272q0 219 217 361
l189 120q51 33 69 59q19 26 19 73t-53 100l202 76l17 -21q63 -88 63 -156z" />
    <glyph glyph-name="agrave.sc" unicode="&#xf7e0;" 
d="M707 1188l-408 328l123 114l414 -344zM774 549l-127 389h-4l-141 -389h272zM20 0v156h113l402 974h247l375 -974h113v-156h-479v156h112l-78 237h-379l-86 -237h113v-156h-453z" />
    <glyph glyph-name="aacute.sc" unicode="&#xf7e1;" 
d="M584 1188l-129 98l413 344l123 -114zM774 549l-127 389h-4l-141 -389h272zM20 0v156h113l402 974h247l375 -974h113v-156h-479v156h112l-78 237h-379l-86 -237h113v-156h-453z" />
    <glyph glyph-name="acircumflex.sc" unicode="&#xf7e2;" 
d="M225 1313l334 286h148l333 -286l-135 -111l-272 242l-275 -242zM774 549l-127 389h-4l-141 -389h272zM20 0v156h113l402 974h247l375 -974h113v-156h-479v156h112l-78 237h-379l-86 -237h113v-156h-453z" />
    <glyph glyph-name="atilde.sc" unicode="&#xf7e3;" 
d="M507 1546q71 0 152 -55q93 -55 115 -55q48 0 67 19t42 48l22 27l121 -86l-22 -31q-54 -73 -100 -109t-110 -36t-165 55q-102 55 -129 55q-57 0 -103 -75l-14 -25l-143 74l16 30q18 35 44 67q26 33 81 65t126 32zM774 549l-127 389h-4l-141 -389h272zM20 0v156h113
l402 974h247l375 -974h113v-156h-479v156h112l-78 237h-379l-86 -237h113v-156h-453z" />
    <glyph glyph-name="adieresis.sc" unicode="&#xf7e4;" 
d="M262 1401q0 59 43 102t103 43t102 -43q43 -43 43 -102t-43 -103t-102 -43q-59 0 -103 43q-43 44 -43 103zM713 1401q0 59 43 102t102 43q58 0 102 -43t44 -102t-43 -103t-103 -43q-60 -1 -102 43q-43 44 -43 103zM774 549l-127 389h-4l-141 -389h272zM20 0v156h113
l402 974h247l375 -974h113v-156h-479v156h112l-78 237h-379l-86 -237h113v-156h-453z" />
    <glyph glyph-name="aring.sc" unicode="&#xf7e5;" 
d="M573 1366q0 -38 28 -64t63 -26q34 0 62 26t28 64t-28 65q-28 25 -62 25t-63 -26q-28 -26 -28 -64zM442 1366q0 86 64 147t158 61t157 -60q63 -62 63 -148t-62 -147q-64 -61 -158 -61t-158 60q-64 62 -64 148zM774 549l-127 389h-4l-141 -389h272zM20 0v156h113l402 974
h247l375 -974h113v-156h-479v156h112l-78 237h-379l-86 -237h113v-156h-453z" />
    <glyph glyph-name="ae.sc" unicode="&#xf7e6;" horiz-adv-x="1705" 
d="M782 967l-178 -334h268l2 334h-92zM20 0v156h134l534 966h864l9 -311h-152l-33 156h-278l-2 -334h299v-156h-301l-2 -321h319l21 180h180l-21 -336h-848v156h125l2 321h-348l-172 -321h133v-156h-463z" />
    <glyph glyph-name="ccedilla.sc" unicode="&#xf7e7;" horiz-adv-x="1138" 
d="M651 -344q119 0 119 75t-137 74h-23v172q-260 25 -391 177t-131 387q0 291 169 447t466 157q162 0 340 -66v-288h-168v141q-88 33 -184 33q-181 0 -281 -113q-100 -112 -100 -304t108 -291t293 -99q86 0 158 16l8 166h168l-8 -307q-111 -45 -303 -56v-86h28
q180 -1 180 -173q0 -88 -79 -140q-80 -52 -199 -53q-119 0 -215 31l12 127q92 -27 170 -27z" />
    <glyph glyph-name="egrave.sc" unicode="&#xf7e8;" horiz-adv-x="1062" 
d="M594 1188l-408 328l123 114l414 -344zM100 0v156h127l6 811h-133v155h842l10 -315h-166l-14 160h-317l-2 -318h321v-155h-323l-2 -338h319l20 180h181l-21 -336h-848z" />
    <glyph glyph-name="eacute.sc" unicode="&#xf7e9;" horiz-adv-x="1062" 
d="M471 1188l-129 98l414 344l123 -114zM100 0v156h127l6 811h-133v155h842l10 -315h-166l-14 160h-317l-2 -318h321v-155h-323l-2 -338h319l20 180h181l-21 -336h-848z" />
    <glyph glyph-name="ecircumflex.sc" unicode="&#xf7ea;" horiz-adv-x="1062" 
d="M125 1313l334 286h147l334 -286l-135 -111l-273 242l-274 -242zM100 0v156h127l6 811h-133v155h842l10 -315h-166l-14 160h-317l-2 -318h321v-155h-323l-2 -338h319l20 180h181l-21 -336h-848z" />
    <glyph glyph-name="edieresis.sc" unicode="&#xf7eb;" horiz-adv-x="1062" 
d="M162 1401q0 59 43 102t102 43t103 -43t43 -102q0 -59 -43 -103q-42 -44 -102 -43q-60 -1 -103 43t-43 103zM612 1401q0 59 43 102t103 43t102 -43q43 -43 43 -102t-43 -103t-102 -43q-59 0 -103 43q-43 44 -43 103zM100 0v156h127l6 811h-133v155h842l10 -315h-166
l-14 160h-317l-2 -318h321v-155h-323l-2 -338h319l20 180h181l-21 -336h-848z" />
    <glyph glyph-name="igrave.sc" unicode="&#xf7ec;" horiz-adv-x="684" 
d="M403 1188l-407 328l123 114l413 -344zM100 967v155h484v-155h-127l-6 -811h133v-156h-484v156h127l6 811h-133z" />
    <glyph glyph-name="iacute.sc" unicode="&#xf7ed;" horiz-adv-x="684" 
d="M281 1188l-129 98l413 344l123 -114zM100 967v155h484v-155h-127l-6 -811h133v-156h-484v156h127l6 811h-133z" />
    <glyph glyph-name="icircumflex.sc" unicode="&#xf7ee;" horiz-adv-x="684" 
d="M-66 1313l334 286h148l334 -286l-136 -111l-272 242l-274 -242zM100 967v155h484v-155h-127l-6 -811h133v-156h-484v156h127l6 811h-133z" />
    <glyph glyph-name="idieresis.sc" unicode="&#xf7ef;" horiz-adv-x="684" 
d="M-29 1401q0 59 43 102q42 43 102 43t103 -43t43 -102t-43 -103t-102 -43q-59 0 -103 43q-43 44 -43 103zM422 1401q0 59 43 102t102 43t103 -43t43 -102q0 -59 -43 -103q-42 -44 -102 -43q-60 -1 -103 43t-43 103zM100 967v155h484v-155h-127l-6 -811h133v-156h-484v156
h127l6 811h-133z" />
    <glyph glyph-name="eth.sc" unicode="&#xf7f0;" 
d="M715 649v-155h-262l-2 -338h153q186 0 287 110q100 111 100 309q0 199 -92 295t-262 97h-180l-2 -318h260zM100 0v156h127l2 338h-129v155h131l2 318h-133v155h576q272 0 415 -152q142 -153 142 -406q0 -252 -169 -408t-437 -156h-527z" />
    <glyph glyph-name="ntilde.sc" unicode="&#xf7f1;" horiz-adv-x="1366" 
d="M557 1546q70 0 154 -55q93 -55 115 -55q57 0 96 53l34 41l121 -86l-22 -31q-53 -73 -99 -109t-110 -36t-166 55t-129 55q-57 0 -102 -75l-15 -25l-143 74l16 30q18 35 44 67q26 33 81 65t125 32zM852 967v155h440v-155h-127l-6 -967h-168l-600 799h-4l-6 -643h133v-156
h-440v156h127l6 811h-133v155h332l569 -760h4l6 605h-133z" />
    <glyph glyph-name="ograve.sc" unicode="&#xf7f2;" 
d="M707 1188l-408 328l123 114l414 -344zM317 552q-1 -182 91 -288t240 -106t237 114q88 114 88 297t-91 289t-240 106t-237 -115q-88 -116 -88 -297zM88 556q0 259 151 424t417 165t406 -159q140 -160 140 -418t-150 -425q-151 -166 -417 -166t-407 160q-140 160 -140 419z
" />
    <glyph glyph-name="oacute.sc" unicode="&#xf7f3;" 
d="M584 1188l-129 98l413 344l123 -114zM317 552q-1 -182 91 -288t240 -106t237 114q88 114 88 297t-91 289t-240 106t-237 -115q-88 -116 -88 -297zM88 556q0 259 151 424t417 165t406 -159q140 -160 140 -418t-150 -425q-151 -166 -417 -166t-407 160q-140 160 -140 419z
" />
    <glyph glyph-name="ocircumflex.sc" unicode="&#xf7f4;" 
d="M238 1313l333 286h148l334 -286l-135 -111l-273 242l-274 -242zM317 552q-1 -182 91 -288t240 -106t237 114q88 114 88 297t-91 289t-240 106t-237 -115q-88 -116 -88 -297zM88 556q0 259 151 424t417 165t406 -159q140 -160 140 -418t-150 -425q-151 -166 -417 -166
t-407 160q-140 160 -140 419z" />
    <glyph glyph-name="otilde.sc" unicode="&#xf7f5;" 
d="M519 1546q71 0 153 -55q94 -55 116 -55q60 0 107 67l23 27l120 -86l-22 -31q-54 -73 -100 -109t-109 -36t-165 55t-130 55q-57 0 -102 -75l-15 -25l-143 74l16 30q18 35 44 67q26 33 81 65t126 32zM317 552q-1 -182 91 -288t240 -106t237 114q88 114 88 297t-91 289
t-240 106t-237 -115q-88 -116 -88 -297zM88 556q0 259 151 424t417 165t406 -159q140 -160 140 -418t-150 -425q-151 -166 -417 -166t-407 160q-140 160 -140 419z" />
    <glyph glyph-name="odieresis.sc" unicode="&#xf7f6;" 
d="M274 1401q0 59 43 102t103 43t102 -43q43 -43 43 -102t-43 -103t-102 -43q-59 0 -103 43q-43 44 -43 103zM725 1401q0 59 43 102t102 43q58 0 102 -43t44 -102t-43 -103t-103 -43q-60 -1 -102 43q-43 44 -43 103zM317 552q-1 -182 91 -288t240 -106t237 114
q88 114 88 297t-91 289t-240 106t-237 -115q-88 -116 -88 -297zM88 556q0 259 151 424t417 165t406 -159q140 -160 140 -418t-150 -425q-151 -166 -417 -166t-407 160q-140 160 -140 419z" />
    <glyph glyph-name="oslash.sc" unicode="&#xf7f8;" 
d="M88 530q0 284 151 450q151 165 406 165q152 0 262 -53l129 202l105 -65l-127 -199q188 -150 188 -435t-150 -452q-151 -166 -407 -166q-150 0 -264 52l-127 -201l-104 66l126 200q-188 152 -188 436zM645 158q152 0 240 114t88 290t-80 278l-404 -641q70 -41 156 -41z
M645 965q-151 0 -239 -116t-88 -289t77 -277l406 641q-68 41 -156 41z" />
    <glyph glyph-name="ugrave.sc" unicode="&#xf7f9;" horiz-adv-x="1327" 
d="M725 1188l-408 328l123 114l414 -344zM678 158q248 0 252 262l6 547h-141v155h462v-155h-116l-6 -586q-2 -201 -127 -302t-347 -101t-339 94q-117 96 -117 317l6 578h-141v155h481v-155h-117l-6 -541q0 -148 66 -208t184 -60z" />
    <glyph glyph-name="uacute.sc" unicode="&#xf7fa;" horiz-adv-x="1327" 
d="M602 1188l-129 98l414 344l123 -114zM678 158q248 0 252 262l6 547h-141v155h462v-155h-116l-6 -586q-2 -201 -127 -302t-347 -101t-339 94q-117 96 -117 317l6 578h-141v155h481v-155h-117l-6 -541q0 -148 66 -208t184 -60z" />
    <glyph glyph-name="ucircumflex.sc" unicode="&#xf7fb;" horiz-adv-x="1327" 
d="M256 1313l334 286h147l334 -286l-135 -111l-272 242l-275 -242zM678 158q248 0 252 262l6 547h-141v155h462v-155h-116l-6 -586q-2 -201 -127 -302t-347 -101t-339 94q-117 96 -117 317l6 578h-141v155h481v-155h-117l-6 -541q0 -148 66 -208t184 -60z" />
    <glyph glyph-name="udieresis.sc" unicode="&#xf7fc;" horiz-adv-x="1327" 
d="M272 1401q0 59 43 102t103 43t102 -43q43 -43 43 -102t-43 -103t-102 -43q-59 0 -103 43q-43 44 -43 103zM723 1401q0 59 43 102t102 43q58 0 102 -43t44 -102t-43 -103t-103 -43q-60 -1 -102 43q-43 44 -43 103zM678 158q248 0 252 262l6 547h-141v155h462v-155h-116
l-6 -586q-2 -201 -127 -302t-347 -101t-339 94q-117 96 -117 317l6 578h-141v155h481v-155h-117l-6 -541q0 -148 66 -208t184 -60z" />
    <glyph glyph-name="yacute.sc" unicode="&#xf7fd;" horiz-adv-x="1251" 
d="M565 1188l-129 98l414 344l123 -114zM1219 1122v-155h-107l-375 -502l-4 -309h133v-156h-483v156h127l4 309l-375 502h-106v155h489v-155h-106l229 -338l238 338h-127v155h463z" />
    <glyph glyph-name="thorn.sc" unicode="&#xf7fe;" horiz-adv-x="1024" 
d="M100 0v156h127l6 811h-133v155h484v-155h-127v-62h145q188 0 280 -88t93 -236q0 -149 -98 -249t-271 -101h-155v-75h133v-156h-484zM573 387q84 0 135 48q50 48 50 137q0 90 -45 134t-121 44h-137l-2 -363h120z" />
    <glyph glyph-name="ydieresis.sc" unicode="&#xf7ff;" horiz-adv-x="1251" 
d="M256 1401q0 59 43 102t102 43t103 -43t43 -102q0 -59 -43 -103q-42 -44 -102 -43q-60 -1 -103 43t-43 103zM707 1401q0 59 43 102t102 43t102 -43t43 -102t-43 -103t-102 -43q-59 -1 -102 43t-43 103zM1219 1122v-155h-107l-375 -502l-4 -309h133v-156h-483v156h127
l4 309l-375 502h-106v155h489v-155h-106l229 -338l238 338h-127v155h463z" />
    </font>
</defs>
</svg>
